<svg width="288" height="99" viewBox="0 0 288 99" fill="none" xmlns="http://www.w3.org/2000/svg">
<g filter="url(#filter0_d)">
<path d="M58.2344 88H4.62109V82.8438L27.4141 59.0547C33.8203 52.4141 38.3125 47.3359 40.8906 43.8203C43.4688 40.3047 45.3633 36.9453 46.5742 33.7422C47.7852 30.5391 48.3906 27.1797 48.3906 23.6641C48.3906 18.5469 46.7109 14.3867 43.3516 11.1836C39.9922 7.98047 35.6367 6.37891 30.2852 6.37891C23.1367 6.37891 16.3008 8.97656 9.77734 14.1719L6.61328 10.1289C13.7617 4.11328 21.6914 1.10547 30.4023 1.10547C37.8633 1.10547 43.7227 3.09766 47.9805 7.08203C52.2773 11.0664 54.4258 16.5547 54.4258 23.5469C54.4258 29.2109 52.9805 34.6992 50.0898 40.0117C47.2383 45.2852 42.0039 51.8086 34.3867 59.582L12.4141 82.1406V82.375H58.2344V88ZM134.371 44.9336C134.371 59.9727 132.066 71.1055 127.457 78.332C122.887 85.5586 115.953 89.1719 106.656 89.1719C97.7109 89.1719 90.9141 85.4609 86.2656 78.0391C81.6172 70.5781 79.293 59.543 79.293 44.9336C79.293 30.0117 81.5391 18.957 86.0312 11.7695C90.5625 4.58203 97.4375 0.988281 106.656 0.988281C115.68 0.988281 122.555 4.71875 127.281 12.1797C132.008 19.6016 134.371 30.5195 134.371 44.9336ZM85.6211 44.9336C85.6211 58.2148 87.3594 68.0391 90.8359 74.4062C94.3125 80.7344 99.5859 83.8984 106.656 83.8984C114.039 83.8984 119.41 80.6172 122.77 74.0547C126.168 67.4922 127.867 57.7852 127.867 44.9336C127.867 32.2773 126.168 22.668 122.77 16.1055C119.41 9.54297 114.039 6.26172 106.656 6.26172C99.2734 6.26172 93.9219 9.54297 90.6016 16.1055C87.2812 22.668 85.6211 32.2773 85.6211 44.9336ZM207.344 88H153.73V82.8438L176.523 59.0547C182.93 52.4141 187.422 47.3359 190 43.8203C192.578 40.3047 194.473 36.9453 195.684 33.7422C196.895 30.5391 197.5 27.1797 197.5 23.6641C197.5 18.5469 195.82 14.3867 192.461 11.1836C189.102 7.98047 184.746 6.37891 179.395 6.37891C172.246 6.37891 165.41 8.97656 158.887 14.1719L155.723 10.1289C162.871 4.11328 170.801 1.10547 179.512 1.10547C186.973 1.10547 192.832 3.09766 197.09 7.08203C201.387 11.0664 203.535 16.5547 203.535 23.5469C203.535 29.2109 202.09 34.6992 199.199 40.0117C196.348 45.2852 191.113 51.8086 183.496 59.582L161.523 82.1406V82.375H207.344V88ZM283.48 44.9336C283.48 59.9727 281.176 71.1055 276.566 78.332C271.996 85.5586 265.062 89.1719 255.766 89.1719C246.82 89.1719 240.023 85.4609 235.375 78.0391C230.727 70.5781 228.402 59.543 228.402 44.9336C228.402 30.0117 230.648 18.957 235.141 11.7695C239.672 4.58203 246.547 0.988281 255.766 0.988281C264.789 0.988281 271.664 4.71875 276.391 12.1797C281.117 19.6016 283.48 30.5195 283.48 44.9336ZM234.73 44.9336C234.73 58.2148 236.469 68.0391 239.945 74.4062C243.422 80.7344 248.695 83.8984 255.766 83.8984C263.148 83.8984 268.52 80.6172 271.879 74.0547C275.277 67.4922 276.977 57.7852 276.977 44.9336C276.977 32.2773 275.277 22.668 271.879 16.1055C268.52 9.54297 263.148 6.26172 255.766 6.26172C248.383 6.26172 243.031 9.54297 239.711 16.1055C236.391 22.668 234.73 32.2773 234.73 44.9336Z" fill="white"/>
</g>
<defs>
<filter id="filter0_d" x="0.621094" y="0.988281" width="286.859" height="97.1836" filterUnits="userSpaceOnUse" color-interpolation-filters="sRGB">
<feFlood flood-opacity="0" result="BackgroundImageFix"/>
<feColorMatrix in="SourceAlpha" type="matrix" values="0 0 0 0 0 0 0 0 0 0 0 0 0 0 0 0 0 0 127 0"/>
<feOffset dy="5"/>
<feGaussianBlur stdDeviation="2"/>
<feColorMatrix type="matrix" values="0 0 0 0 0 0 0 0 0 0 0 0 0 0 0 0 0 0 0.3 0"/>
<feBlend mode="normal" in2="BackgroundImageFix" result="effect1_dropShadow"/>
<feBlend mode="normal" in="SourceGraphic" in2="effect1_dropShadow" result="shape"/>
</filter>
</defs>
</svg>
