<svg width="80" height="80" viewBox="0 0 80 80" fill="none" xmlns="http://www.w3.org/2000/svg">
<g clip-path="url(#clip0)">
<g opacity="0.3">
<path d="M25.8934 47.1733C26.1401 47.4205 26.4331 47.6166 26.7557 47.7504C27.0783 47.8842 27.4241 47.9531 27.7734 47.9531C28.1226 47.9531 28.4684 47.8842 28.791 47.7504C29.1136 47.6166 29.4066 47.4205 29.6534 47.1733L40 36.8266L50.3467 47.1733C50.8453 47.6719 51.5215 47.952 52.2267 47.952C52.9318 47.952 53.6081 47.6719 54.1067 47.1733C54.6053 46.6747 54.8854 45.9984 54.8854 45.2933C54.8854 44.5881 54.6053 43.9119 54.1067 43.4133L41.8667 31.1733C41.62 30.9261 41.3269 30.7299 41.0043 30.5961C40.6818 30.4623 40.3359 30.3934 39.9867 30.3934C39.6374 30.3934 39.2916 30.4623 38.969 30.5961C38.6464 30.7299 38.3534 30.9261 38.1067 31.1733L25.8667 43.4133C24.8534 44.4266 24.8534 46.1333 25.8934 47.1733Z" fill="#26070D"/>
</g>
<circle opacity="0.05" cx="40" cy="40" r="40" transform="rotate(-180 40 40)" fill="#26070D"/>
</g>
<defs>
<clipPath id="clip0">
<rect width="80" height="80" fill="white"/>
</clipPath>
</defs>
</svg>
