<svg width="64" height="64" viewBox="0 0 64 64" fill="none" xmlns="http://www.w3.org/2000/svg">
<g opacity="0.3">
<path d="M17.8934 39.1733C18.1401 39.4205 18.4331 39.6166 18.7557 39.7504C19.0783 39.8842 19.4241 39.9531 19.7734 39.9531C20.1226 39.9531 20.4684 39.8842 20.791 39.7504C21.1136 39.6166 21.4066 39.4205 21.6534 39.1733L32 28.8266L42.3467 39.1733C42.8453 39.6719 43.5215 39.952 44.2267 39.952C44.9318 39.952 45.6081 39.6719 46.1067 39.1733C46.6053 38.6747 46.8854 37.9984 46.8854 37.2933C46.8854 36.5881 46.6053 35.9119 46.1067 35.4133L33.8667 23.1733C33.62 22.9261 33.3269 22.7299 33.0043 22.5961C32.6818 22.4623 32.3359 22.3934 31.9867 22.3934C31.6374 22.3934 31.2916 22.4623 30.969 22.5961C30.6464 22.7299 30.3534 22.9261 30.1067 23.1733L17.8667 35.4133C16.8534 36.4266 16.8534 38.1333 17.8934 39.1733Z" fill="#26070D"/>
</g>
</svg>
