<svg width="144" height="198" viewBox="0 0 144 198" fill="none" xmlns="http://www.w3.org/2000/svg">
<path d="M9.55752 4.79977C9.55752 7.45061 7.418 9.59954 4.77876 9.59954C2.13952 9.59954 0 7.45061 0 4.79977C0 2.14893 2.13952 0 4.77876 0C7.418 0 9.55752 2.14893 9.55752 4.79977Z" fill="#D3D1E3"/>
<path d="M36.446 4.79977C36.446 7.45061 34.3065 9.59954 31.6672 9.59954C29.028 9.59954 26.8885 7.45061 26.8885 4.79977C26.8885 2.14893 29.028 0 31.6672 0C34.3065 0 36.446 2.14893 36.446 4.79977Z" fill="#D3D1E3"/>
<path d="M63.3345 4.79977C63.3345 7.45061 61.195 9.59954 58.5557 9.59954C55.9165 9.59954 53.777 7.45061 53.777 4.79977C53.777 2.14893 55.9165 0 58.5557 0C61.195 0 63.3345 2.14893 63.3345 4.79977Z" fill="#D3D1E3"/>
<path d="M90.223 4.79977C90.223 7.45061 88.0835 9.59954 85.4443 9.59954C82.8051 9.59954 80.6655 7.45061 80.6655 4.79977C80.6655 2.14893 82.8051 0 85.4443 0C88.0835 0 90.223 2.14893 90.223 4.79977Z" fill="#D3D1E3"/>
<path d="M117.111 4.79977C117.111 7.45061 114.972 9.59954 112.333 9.59954C109.693 9.59954 107.554 7.45061 107.554 4.79977C107.554 2.14893 109.693 0 112.333 0C114.972 0 117.111 2.14893 117.111 4.79977Z" fill="#D3D1E3"/>
<path d="M144 4.79977C144 7.45061 141.861 9.59954 139.221 9.59954C136.582 9.59954 134.443 7.45061 134.443 4.79977C134.443 2.14893 136.582 0 139.221 0C141.861 0 144 2.14893 144 4.79977Z" fill="#D3D1E3"/>
<path d="M9.55752 31.7143C9.55752 34.3652 7.418 36.5141 4.77876 36.5141C2.13952 36.5141 0 34.3652 0 31.7143C0 29.0635 2.13952 26.9146 4.77876 26.9146C7.418 26.9146 9.55752 29.0635 9.55752 31.7143Z" fill="#D3D1E3"/>
<path d="M36.446 31.7143C36.446 34.3652 34.3065 36.5141 31.6672 36.5141C29.028 36.5141 26.8885 34.3652 26.8885 31.7143C26.8885 29.0635 29.028 26.9146 31.6672 26.9146C34.3065 26.9146 36.446 29.0635 36.446 31.7143Z" fill="#D3D1E3"/>
<path d="M63.3345 31.7143C63.3345 34.3652 61.195 36.5141 58.5557 36.5141C55.9165 36.5141 53.777 34.3652 53.777 31.7143C53.777 29.0635 55.9165 26.9146 58.5557 26.9146C61.195 26.9146 63.3345 29.0635 63.3345 31.7143Z" fill="#D3D1E3"/>
<path d="M90.223 31.7143C90.223 34.3652 88.0835 36.5141 85.4443 36.5141C82.8051 36.5141 80.6655 34.3652 80.6655 31.7143C80.6655 29.0635 82.8051 26.9146 85.4443 26.9146C88.0835 26.9146 90.223 29.0635 90.223 31.7143Z" fill="#D3D1E3"/>
<path d="M117.111 31.7143C117.111 34.3652 114.972 36.5141 112.333 36.5141C109.693 36.5141 107.554 34.3652 107.554 31.7143C107.554 29.0635 109.693 26.9146 112.333 26.9146C114.972 26.9146 117.111 29.0635 117.111 31.7143Z" fill="#D3D1E3"/>
<path d="M144 31.7143C144 34.3652 141.861 36.5141 139.221 36.5141C136.582 36.5141 134.443 34.3652 134.443 31.7143C134.443 29.0635 136.582 26.9146 139.221 26.9146C141.861 26.9146 144 29.0635 144 31.7143Z" fill="#D3D1E3"/>
<path d="M9.55752 58.6286C9.55752 61.2795 7.418 63.4284 4.77876 63.4284C2.13952 63.4284 0 61.2795 0 58.6286C0 55.9778 2.13952 53.8289 4.77876 53.8289C7.418 53.8289 9.55752 55.9778 9.55752 58.6286Z" fill="#D3D1E3"/>
<path d="M36.446 58.6286C36.446 61.2795 34.3065 63.4284 31.6672 63.4284C29.028 63.4284 26.8885 61.2795 26.8885 58.6286C26.8885 55.9778 29.028 53.8289 31.6672 53.8289C34.3065 53.8289 36.446 55.9778 36.446 58.6286Z" fill="#D3D1E3"/>
<path d="M63.3345 58.6286C63.3345 61.2795 61.195 63.4284 58.5557 63.4284C55.9165 63.4284 53.777 61.2795 53.777 58.6286C53.777 55.9778 55.9165 53.8289 58.5557 53.8289C61.195 53.8289 63.3345 55.9778 63.3345 58.6286Z" fill="#D3D1E3"/>
<path d="M90.223 58.6286C90.223 61.2795 88.0835 63.4284 85.4443 63.4284C82.8051 63.4284 80.6655 61.2795 80.6655 58.6286C80.6655 55.9778 82.8051 53.8289 85.4443 53.8289C88.0835 53.8289 90.223 55.9778 90.223 58.6286Z" fill="#D3D1E3"/>
<path d="M117.111 58.6286C117.111 61.2795 114.972 63.4284 112.333 63.4284C109.693 63.4284 107.554 61.2795 107.554 58.6286C107.554 55.9778 109.693 53.8289 112.333 53.8289C114.972 53.8289 117.111 55.9778 117.111 58.6286Z" fill="#D3D1E3"/>
<path d="M144 58.6286C144 61.2795 141.861 63.4284 139.221 63.4284C136.582 63.4284 134.443 61.2795 134.443 58.6286C134.443 55.9778 136.582 53.8289 139.221 53.8289C141.861 53.8289 144 55.9778 144 58.6286Z" fill="#D3D1E3"/>
<path d="M9.55752 85.5432C9.55752 88.194 7.418 90.3429 4.77876 90.3429C2.13952 90.3429 0 88.194 0 85.5432C0 82.8923 2.13952 80.7434 4.77876 80.7434C7.418 80.7434 9.55752 82.8923 9.55752 85.5432Z" fill="#D3D1E3"/>
<path d="M36.446 85.5432C36.446 88.194 34.3065 90.3429 31.6672 90.3429C29.028 90.3429 26.8885 88.194 26.8885 85.5432C26.8885 82.8923 29.028 80.7434 31.6672 80.7434C34.3065 80.7434 36.446 82.8923 36.446 85.5432Z" fill="#D3D1E3"/>
<path d="M63.3345 85.5432C63.3345 88.194 61.195 90.3429 58.5557 90.3429C55.9165 90.3429 53.777 88.194 53.777 85.5432C53.777 82.8923 55.9165 80.7434 58.5557 80.7434C61.195 80.7434 63.3345 82.8923 63.3345 85.5432Z" fill="#D3D1E3"/>
<path d="M90.223 85.5432C90.223 88.194 88.0835 90.3429 85.4443 90.3429C82.8051 90.3429 80.6655 88.194 80.6655 85.5432C80.6655 82.8923 82.8051 80.7434 85.4443 80.7434C88.0835 80.7434 90.223 82.8923 90.223 85.5432Z" fill="#D3D1E3"/>
<path d="M117.111 85.5432C117.111 88.194 114.972 90.3429 112.333 90.3429C109.693 90.3429 107.554 88.194 107.554 85.5432C107.554 82.8923 109.693 80.7434 112.333 80.7434C114.972 80.7434 117.111 82.8923 117.111 85.5432Z" fill="#D3D1E3"/>
<path d="M144 85.5432C144 88.194 141.861 90.3429 139.221 90.3429C136.582 90.3429 134.443 88.194 134.443 85.5432C134.443 82.8923 136.582 80.7434 139.221 80.7434C141.861 80.7434 144 82.8923 144 85.5432Z" fill="#D3D1E3"/>
<path d="M9.55752 112.457C9.55752 115.108 7.418 117.257 4.77876 117.257C2.13952 117.257 0 115.108 0 112.457C0 109.807 2.13952 107.658 4.77876 107.658C7.418 107.658 9.55752 109.807 9.55752 112.457Z" fill="#D3D1E3"/>
<path d="M36.446 112.457C36.446 115.108 34.3065 117.257 31.6672 117.257C29.028 117.257 26.8885 115.108 26.8885 112.457C26.8885 109.807 29.028 107.658 31.6672 107.658C34.3065 107.658 36.446 109.807 36.446 112.457Z" fill="#D3D1E3"/>
<path d="M63.3345 112.457C63.3345 115.108 61.195 117.257 58.5557 117.257C55.9165 117.257 53.777 115.108 53.777 112.457C53.777 109.807 55.9165 107.658 58.5557 107.658C61.195 107.658 63.3345 109.807 63.3345 112.457Z" fill="#D3D1E3"/>
<path d="M90.223 112.457C90.223 115.108 88.0835 117.257 85.4443 117.257C82.8051 117.257 80.6655 115.108 80.6655 112.457C80.6655 109.807 82.8051 107.658 85.4443 107.658C88.0835 107.658 90.223 109.807 90.223 112.457Z" fill="#D3D1E3"/>
<path d="M117.111 112.457C117.111 115.108 114.972 117.257 112.333 117.257C109.693 117.257 107.554 115.108 107.554 112.457C107.554 109.807 109.693 107.658 112.333 107.658C114.972 107.658 117.111 109.807 117.111 112.457Z" fill="#D3D1E3"/>
<path d="M144 112.457C144 115.108 141.861 117.257 139.221 117.257C136.582 117.257 134.443 115.108 134.443 112.457C134.443 109.807 136.582 107.658 139.221 107.658C141.861 107.658 144 109.807 144 112.457Z" fill="#D3D1E3"/>
<path d="M9.55752 139.372C9.55752 142.023 7.418 144.172 4.77876 144.172C2.13952 144.172 0 142.023 0 139.372C0 136.721 2.13952 134.572 4.77876 134.572C7.418 134.572 9.55752 136.721 9.55752 139.372Z" fill="#D3D1E3"/>
<path d="M36.446 139.372C36.446 142.023 34.3065 144.172 31.6672 144.172C29.028 144.172 26.8885 142.023 26.8885 139.372C26.8885 136.721 29.028 134.572 31.6672 134.572C34.3065 134.572 36.446 136.721 36.446 139.372Z" fill="#D3D1E3"/>
<path d="M63.3345 139.372C63.3345 142.023 61.195 144.172 58.5557 144.172C55.9165 144.172 53.777 142.023 53.777 139.372C53.777 136.721 55.9165 134.572 58.5557 134.572C61.195 134.572 63.3345 136.721 63.3345 139.372Z" fill="#D3D1E3"/>
<path d="M90.223 139.372C90.223 142.023 88.0835 144.172 85.4443 144.172C82.8051 144.172 80.6655 142.023 80.6655 139.372C80.6655 136.721 82.8051 134.572 85.4443 134.572C88.0835 134.572 90.223 136.721 90.223 139.372Z" fill="#D3D1E3"/>
<path d="M117.111 139.372C117.111 142.023 114.972 144.172 112.333 144.172C109.693 144.172 107.554 142.023 107.554 139.372C107.554 136.721 109.693 134.572 112.333 134.572C114.972 134.572 117.111 136.721 117.111 139.372Z" fill="#D3D1E3"/>
<path d="M144 139.372C144 142.023 141.861 144.172 139.221 144.172C136.582 144.172 134.443 142.023 134.443 139.372C134.443 136.721 136.582 134.572 139.221 134.572C141.861 134.572 144 136.721 144 139.372Z" fill="#D3D1E3"/>
<path d="M9.55752 166.286C9.55752 168.937 7.418 171.086 4.77876 171.086C2.13952 171.086 0 168.937 0 166.286C0 163.636 2.13952 161.487 4.77876 161.487C7.418 161.487 9.55752 163.636 9.55752 166.286Z" fill="#D3D1E3"/>
<path d="M36.446 166.286C36.446 168.937 34.3065 171.086 31.6672 171.086C29.028 171.086 26.8885 168.937 26.8885 166.286C26.8885 163.636 29.028 161.487 31.6672 161.487C34.3065 161.487 36.446 163.636 36.446 166.286Z" fill="#D3D1E3"/>
<path d="M63.3345 166.286C63.3345 168.937 61.195 171.086 58.5557 171.086C55.9165 171.086 53.777 168.937 53.777 166.286C53.777 163.636 55.9165 161.487 58.5557 161.487C61.195 161.487 63.3345 163.636 63.3345 166.286Z" fill="#D3D1E3"/>
<path d="M90.223 166.286C90.223 168.937 88.0835 171.086 85.4443 171.086C82.8051 171.086 80.6655 168.937 80.6655 166.286C80.6655 163.636 82.8051 161.487 85.4443 161.487C88.0835 161.487 90.223 163.636 90.223 166.286Z" fill="#D3D1E3"/>
<path d="M117.111 166.286C117.111 168.937 114.972 171.086 112.333 171.086C109.693 171.086 107.554 168.937 107.554 166.286C107.554 163.636 109.693 161.487 112.333 161.487C114.972 161.487 117.111 163.636 117.111 166.286Z" fill="#D3D1E3"/>
<path d="M144 166.286C144 168.937 141.861 171.086 139.221 171.086C136.582 171.086 134.443 168.937 134.443 166.286C134.443 163.636 136.582 161.487 139.221 161.487C141.861 161.487 144 163.636 144 166.286Z" fill="#D3D1E3"/>
<path d="M9.55752 193.201C9.55752 195.852 7.418 198.001 4.77876 198.001C2.13952 198.001 0 195.852 0 193.201C0 190.55 2.13952 188.401 4.77876 188.401C7.418 188.401 9.55752 190.55 9.55752 193.201Z" fill="#D3D1E3"/>
<path d="M36.446 193.201C36.446 195.852 34.3065 198.001 31.6672 198.001C29.028 198.001 26.8885 195.852 26.8885 193.201C26.8885 190.55 29.028 188.401 31.6672 188.401C34.3065 188.401 36.446 190.55 36.446 193.201Z" fill="#D3D1E3"/>
<path d="M63.3345 193.201C63.3345 195.852 61.195 198.001 58.5557 198.001C55.9165 198.001 53.777 195.852 53.777 193.201C53.777 190.55 55.9165 188.401 58.5557 188.401C61.195 188.401 63.3345 190.55 63.3345 193.201Z" fill="#D3D1E3"/>
<path d="M90.223 193.201C90.223 195.852 88.0835 198.001 85.4443 198.001C82.8051 198.001 80.6655 195.852 80.6655 193.201C80.6655 190.55 82.8051 188.401 85.4443 188.401C88.0835 188.401 90.223 190.55 90.223 193.201Z" fill="#D3D1E3"/>
<path d="M117.111 193.201C117.111 195.852 114.972 198.001 112.333 198.001C109.693 198.001 107.554 195.852 107.554 193.201C107.554 190.55 109.693 188.401 112.333 188.401C114.972 188.401 117.111 190.55 117.111 193.201Z" fill="#D3D1E3"/>
<path d="M144 193.201C144 195.852 141.861 198.001 139.221 198.001C136.582 198.001 134.443 195.852 134.443 193.201C134.443 190.55 136.582 188.401 139.221 188.401C141.861 188.401 144 190.55 144 193.201Z" fill="#D3D1E3"/>
</svg>
