<svg width="198" height="144" viewBox="0 0 198 144" fill="none" xmlns="http://www.w3.org/2000/svg">
<path d="M4.79977 134.442C7.45061 134.442 9.59954 136.582 9.59954 139.221C9.59954 141.86 7.45061 144 4.79977 144C2.14893 144 0 141.86 0 139.221C0 136.582 2.14893 134.442 4.79977 134.442Z" fill="#D3D1E3"/>
<path d="M4.79977 107.554C7.45061 107.554 9.59954 109.693 9.59954 112.333C9.59954 114.972 7.45061 117.111 4.79977 117.111C2.14893 117.111 0 114.972 0 112.333C0 109.693 2.14893 107.554 4.79977 107.554Z" fill="#D3D1E3"/>
<path d="M4.79977 80.6651C7.45061 80.6651 9.59954 82.8047 9.59954 85.4439C9.59954 88.0831 7.45061 90.2227 4.79977 90.2227C2.14893 90.2227 0 88.0831 0 85.4439C0 82.8047 2.14893 80.6651 4.79977 80.6651Z" fill="#D3D1E3"/>
<path d="M4.79977 53.7767C7.45061 53.7767 9.59954 55.9162 9.59954 58.5555C9.59954 61.1947 7.45061 63.3342 4.79977 63.3342C2.14893 63.3342 0 61.1947 0 58.5555C0 55.9162 2.14893 53.7767 4.79977 53.7767Z" fill="#D3D1E3"/>
<path d="M4.79977 26.8883C7.45061 26.8883 9.59954 29.0278 9.59954 31.667C9.59954 34.3063 7.45061 36.4458 4.79977 36.4458C2.14893 36.4458 0 34.3063 0 31.667C0 29.0278 2.14893 26.8883 4.79977 26.8883Z" fill="#D3D1E3"/>
<path d="M4.79977 9.53674e-05C7.45061 9.53674e-05 9.59954 2.13962 9.59954 4.77886C9.59954 7.41809 7.45061 9.55762 4.79977 9.55762C2.14893 9.55762 0 7.41809 0 4.77886C0 2.13962 2.14893 9.53674e-05 4.79977 9.53674e-05Z" fill="#D3D1E3"/>
<path d="M31.7143 134.442C34.3651 134.442 36.514 136.582 36.514 139.221C36.514 141.86 34.3651 144 31.7143 144C29.0634 144 26.9145 141.86 26.9145 139.221C26.9145 136.582 29.0634 134.442 31.7143 134.442Z" fill="#D3D1E3"/>
<path d="M31.7143 107.554C34.3651 107.554 36.514 109.693 36.514 112.333C36.514 114.972 34.3651 117.111 31.7143 117.111C29.0634 117.111 26.9145 114.972 26.9145 112.333C26.9145 109.693 29.0634 107.554 31.7143 107.554Z" fill="#D3D1E3"/>
<path d="M31.7143 80.6651C34.3651 80.6651 36.514 82.8047 36.514 85.4439C36.514 88.0831 34.3651 90.2227 31.7143 90.2227C29.0634 90.2227 26.9145 88.0831 26.9145 85.4439C26.9145 82.8047 29.0634 80.6651 31.7143 80.6651Z" fill="#D3D1E3"/>
<path d="M31.7143 53.7767C34.3651 53.7767 36.514 55.9162 36.514 58.5555C36.514 61.1947 34.3651 63.3342 31.7143 63.3342C29.0634 63.3342 26.9145 61.1947 26.9145 58.5555C26.9145 55.9162 29.0634 53.7767 31.7143 53.7767Z" fill="#D3D1E3"/>
<path d="M31.7143 26.8883C34.3651 26.8883 36.514 29.0278 36.514 31.667C36.514 34.3063 34.3651 36.4458 31.7143 36.4458C29.0634 36.4458 26.9145 34.3063 26.9145 31.667C26.9145 29.0278 29.0634 26.8883 31.7143 26.8883Z" fill="#D3D1E3"/>
<path d="M31.7143 9.53674e-05C34.3651 9.53674e-05 36.514 2.13962 36.514 4.77886C36.514 7.41809 34.3651 9.55762 31.7143 9.55762C29.0634 9.55762 26.9145 7.41809 26.9145 4.77886C26.9145 2.13962 29.0634 9.53674e-05 31.7143 9.53674e-05Z" fill="#D3D1E3"/>
<path d="M58.6287 134.442C61.2795 134.442 63.4285 136.582 63.4285 139.221C63.4285 141.86 61.2795 144 58.6287 144C55.9778 144 53.8289 141.86 53.8289 139.221C53.8289 136.582 55.9778 134.442 58.6287 134.442Z" fill="#D3D1E3"/>
<path d="M58.6287 107.554C61.2795 107.554 63.4285 109.693 63.4285 112.333C63.4285 114.972 61.2795 117.111 58.6287 117.111C55.9778 117.111 53.8289 114.972 53.8289 112.333C53.8289 109.693 55.9778 107.554 58.6287 107.554Z" fill="#D3D1E3"/>
<path d="M58.6287 80.6651C61.2795 80.6651 63.4285 82.8047 63.4285 85.4439C63.4285 88.0831 61.2795 90.2227 58.6287 90.2227C55.9778 90.2227 53.8289 88.0831 53.8289 85.4439C53.8289 82.8047 55.9778 80.6651 58.6287 80.6651Z" fill="#D3D1E3"/>
<path d="M58.6287 53.7767C61.2795 53.7767 63.4285 55.9162 63.4285 58.5555C63.4285 61.1947 61.2795 63.3342 58.6287 63.3342C55.9778 63.3342 53.8289 61.1947 53.8289 58.5555C53.8289 55.9162 55.9778 53.7767 58.6287 53.7767Z" fill="#D3D1E3"/>
<path d="M58.6287 26.8883C61.2795 26.8883 63.4285 29.0278 63.4285 31.667C63.4285 34.3063 61.2795 36.4458 58.6287 36.4458C55.9778 36.4458 53.8289 34.3063 53.8289 31.667C53.8289 29.0278 55.9778 26.8883 58.6287 26.8883Z" fill="#D3D1E3"/>
<path d="M58.6287 9.53674e-05C61.2795 9.53674e-05 63.4285 2.13962 63.4285 4.77886C63.4285 7.41809 61.2795 9.55762 58.6287 9.55762C55.9778 9.55762 53.8289 7.41809 53.8289 4.77886C53.8289 2.13962 55.9778 9.53674e-05 58.6287 9.53674e-05Z" fill="#D3D1E3"/>
<path d="M85.5431 134.442C88.194 134.442 90.3429 136.582 90.3429 139.221C90.3429 141.86 88.194 144 85.5431 144C82.8923 144 80.7433 141.86 80.7433 139.221C80.7433 136.582 82.8923 134.442 85.5431 134.442Z" fill="#D3D1E3"/>
<path d="M85.5431 107.554C88.194 107.554 90.3429 109.693 90.3429 112.333C90.3429 114.972 88.194 117.111 85.5431 117.111C82.8923 117.111 80.7433 114.972 80.7433 112.333C80.7433 109.693 82.8923 107.554 85.5431 107.554Z" fill="#D3D1E3"/>
<path d="M85.5431 80.6651C88.194 80.6651 90.3429 82.8047 90.3429 85.4439C90.3429 88.0831 88.194 90.2227 85.5431 90.2227C82.8923 90.2227 80.7433 88.0831 80.7433 85.4439C80.7433 82.8047 82.8923 80.6651 85.5431 80.6651Z" fill="#D3D1E3"/>
<path d="M85.5431 53.7767C88.194 53.7767 90.3429 55.9162 90.3429 58.5555C90.3429 61.1947 88.194 63.3342 85.5431 63.3342C82.8923 63.3342 80.7433 61.1947 80.7433 58.5555C80.7433 55.9162 82.8923 53.7767 85.5431 53.7767Z" fill="#D3D1E3"/>
<path d="M85.5431 26.8883C88.194 26.8883 90.3429 29.0278 90.3429 31.667C90.3429 34.3063 88.194 36.4458 85.5431 36.4458C82.8923 36.4458 80.7433 34.3063 80.7433 31.667C80.7433 29.0278 82.8923 26.8883 85.5431 26.8883Z" fill="#D3D1E3"/>
<path d="M85.5431 9.53674e-05C88.194 9.53674e-05 90.3429 2.13962 90.3429 4.77886C90.3429 7.41809 88.194 9.55762 85.5431 9.55762C82.8923 9.55762 80.7433 7.41809 80.7433 4.77886C80.7433 2.13962 82.8923 9.53674e-05 85.5431 9.53674e-05Z" fill="#D3D1E3"/>
<path d="M112.458 134.442C115.108 134.442 117.257 136.582 117.257 139.221C117.257 141.86 115.108 144 112.458 144C109.807 144 107.658 141.86 107.658 139.221C107.658 136.582 109.807 134.442 112.458 134.442Z" fill="#D3D1E3"/>
<path d="M112.458 107.554C115.108 107.554 117.257 109.693 117.257 112.333C117.257 114.972 115.108 117.111 112.458 117.111C109.807 117.111 107.658 114.972 107.658 112.333C107.658 109.693 109.807 107.554 112.458 107.554Z" fill="#D3D1E3"/>
<path d="M112.458 80.6651C115.108 80.6651 117.257 82.8047 117.257 85.4439C117.257 88.0831 115.108 90.2227 112.458 90.2227C109.807 90.2227 107.658 88.0831 107.658 85.4439C107.658 82.8047 109.807 80.6651 112.458 80.6651Z" fill="#D3D1E3"/>
<path d="M112.458 53.7767C115.108 53.7767 117.257 55.9162 117.257 58.5555C117.257 61.1947 115.108 63.3342 112.458 63.3342C109.807 63.3342 107.658 61.1947 107.658 58.5555C107.658 55.9162 109.807 53.7767 112.458 53.7767Z" fill="#D3D1E3"/>
<path d="M112.458 26.8883C115.108 26.8883 117.257 29.0278 117.257 31.667C117.257 34.3063 115.108 36.4458 112.458 36.4458C109.807 36.4458 107.658 34.3063 107.658 31.667C107.658 29.0278 109.807 26.8883 112.458 26.8883Z" fill="#D3D1E3"/>
<path d="M112.458 9.53674e-05C115.108 9.53674e-05 117.257 2.13962 117.257 4.77886C117.257 7.41809 115.108 9.55762 112.458 9.55762C109.807 9.55762 107.658 7.41809 107.658 4.77886C107.658 2.13962 109.807 9.53674e-05 112.458 9.53674e-05Z" fill="#D3D1E3"/>
<path d="M139.372 134.442C142.023 134.442 144.172 136.582 144.172 139.221C144.172 141.86 142.023 144 139.372 144C136.721 144 134.572 141.86 134.572 139.221C134.572 136.582 136.721 134.442 139.372 134.442Z" fill="#D3D1E3"/>
<path d="M139.372 107.554C142.023 107.554 144.172 109.693 144.172 112.333C144.172 114.972 142.023 117.111 139.372 117.111C136.721 117.111 134.572 114.972 134.572 112.333C134.572 109.693 136.721 107.554 139.372 107.554Z" fill="#D3D1E3"/>
<path d="M139.372 80.6651C142.023 80.6651 144.172 82.8047 144.172 85.4439C144.172 88.0831 142.023 90.2227 139.372 90.2227C136.721 90.2227 134.572 88.0831 134.572 85.4439C134.572 82.8047 136.721 80.6651 139.372 80.6651Z" fill="#D3D1E3"/>
<path d="M139.372 53.7767C142.023 53.7767 144.172 55.9162 144.172 58.5555C144.172 61.1947 142.023 63.3342 139.372 63.3342C136.721 63.3342 134.572 61.1947 134.572 58.5555C134.572 55.9162 136.721 53.7767 139.372 53.7767Z" fill="#D3D1E3"/>
<path d="M139.372 26.8883C142.023 26.8883 144.172 29.0278 144.172 31.667C144.172 34.3063 142.023 36.4458 139.372 36.4458C136.721 36.4458 134.572 34.3063 134.572 31.667C134.572 29.0278 136.721 26.8883 139.372 26.8883Z" fill="#D3D1E3"/>
<path d="M139.372 9.53674e-05C142.023 9.53674e-05 144.172 2.13962 144.172 4.77886C144.172 7.41809 142.023 9.55762 139.372 9.55762C136.721 9.55762 134.572 7.41809 134.572 4.77886C134.572 2.13962 136.721 9.53674e-05 139.372 9.53674e-05Z" fill="#D3D1E3"/>
<path d="M166.286 134.442C168.937 134.442 171.086 136.582 171.086 139.221C171.086 141.86 168.937 144 166.286 144C163.636 144 161.487 141.86 161.487 139.221C161.487 136.582 163.636 134.442 166.286 134.442Z" fill="#D3D1E3"/>
<path d="M166.286 107.554C168.937 107.554 171.086 109.693 171.086 112.333C171.086 114.972 168.937 117.111 166.286 117.111C163.636 117.111 161.487 114.972 161.487 112.333C161.487 109.693 163.636 107.554 166.286 107.554Z" fill="#D3D1E3"/>
<path d="M166.286 80.6651C168.937 80.6651 171.086 82.8047 171.086 85.4439C171.086 88.0831 168.937 90.2227 166.286 90.2227C163.636 90.2227 161.487 88.0831 161.487 85.4439C161.487 82.8047 163.636 80.6651 166.286 80.6651Z" fill="#D3D1E3"/>
<path d="M166.286 53.7767C168.937 53.7767 171.086 55.9162 171.086 58.5555C171.086 61.1947 168.937 63.3342 166.286 63.3342C163.636 63.3342 161.487 61.1947 161.487 58.5555C161.487 55.9162 163.636 53.7767 166.286 53.7767Z" fill="#D3D1E3"/>
<path d="M166.286 26.8883C168.937 26.8883 171.086 29.0278 171.086 31.667C171.086 34.3063 168.937 36.4458 166.286 36.4458C163.636 36.4458 161.487 34.3063 161.487 31.667C161.487 29.0278 163.636 26.8883 166.286 26.8883Z" fill="#D3D1E3"/>
<path d="M166.286 9.53674e-05C168.937 9.53674e-05 171.086 2.13962 171.086 4.77886C171.086 7.41809 168.937 9.55762 166.286 9.55762C163.636 9.55762 161.487 7.41809 161.487 4.77886C161.487 2.13962 163.636 9.53674e-05 166.286 9.53674e-05Z" fill="#D3D1E3"/>
<path d="M193.201 134.442C195.852 134.442 198.001 136.582 198.001 139.221C198.001 141.86 195.852 144 193.201 144C190.55 144 188.401 141.86 188.401 139.221C188.401 136.582 190.55 134.442 193.201 134.442Z" fill="#D3D1E3"/>
<path d="M193.201 107.554C195.852 107.554 198.001 109.693 198.001 112.333C198.001 114.972 195.852 117.111 193.201 117.111C190.55 117.111 188.401 114.972 188.401 112.333C188.401 109.693 190.55 107.554 193.201 107.554Z" fill="#D3D1E3"/>
<path d="M193.201 80.6651C195.852 80.6651 198.001 82.8047 198.001 85.4439C198.001 88.0831 195.852 90.2227 193.201 90.2227C190.55 90.2227 188.401 88.0831 188.401 85.4439C188.401 82.8047 190.55 80.6651 193.201 80.6651Z" fill="#D3D1E3"/>
<path d="M193.201 53.7767C195.852 53.7767 198.001 55.9162 198.001 58.5555C198.001 61.1947 195.852 63.3342 193.201 63.3342C190.55 63.3342 188.401 61.1947 188.401 58.5555C188.401 55.9162 190.55 53.7767 193.201 53.7767Z" fill="#D3D1E3"/>
<path d="M193.201 26.8883C195.852 26.8883 198.001 29.0278 198.001 31.667C198.001 34.3063 195.852 36.4458 193.201 36.4458C190.55 36.4458 188.401 34.3063 188.401 31.667C188.401 29.0278 190.55 26.8883 193.201 26.8883Z" fill="#D3D1E3"/>
<path d="M193.201 9.53674e-05C195.852 9.53674e-05 198.001 2.13962 198.001 4.77886C198.001 7.41809 195.852 9.55762 193.201 9.55762C190.55 9.55762 188.401 7.41809 188.401 4.77886C188.401 2.13962 190.55 9.53674e-05 193.201 9.53674e-05Z" fill="#D3D1E3"/>
</svg>
