<?xml version="1.0" standalone="no"?>
<!DOCTYPE svg PUBLIC "-//W3C//DTD SVG 20010904//EN"
 "http://www.w3.org/TR/2001/REC-SVG-20010904/DTD/svg10.dtd">
<svg version="1.0" xmlns="http://www.w3.org/2000/svg"
 width="621.000000pt" height="416.000000pt" viewBox="0 0 621.000000 416.000000"
 preserveAspectRatio="xMidYMid meet">

<g transform="translate(0.000000,416.000000) scale(0.100000,-0.100000)"
fill="#000000" stroke="none">
<path d="M3741 4104 c-28 -19 -52 -30 -55 -25 -3 4 -16 6 -29 4 -14 -3 -40 3
-58 13 -19 10 -47 20 -62 22 -25 3 -27 1 -21 -22 4 -16 2 -26 -4 -26 -6 0 -10
-15 -9 -32 2 -28 -3 -35 -32 -50 -19 -9 -38 -21 -43 -26 -13 -13 -68 -2 -68
14 0 8 -3 14 -7 15 -5 0 -35 2 -68 4 -33 3 -70 7 -83 10 -16 4 -29 -2 -47 -20
-22 -25 -25 -26 -48 -11 -23 15 -89 13 -85 -3 4 -14 -14 -50 -27 -55 -8 -3
-15 -12 -15 -21 0 -8 -6 -15 -13 -15 -14 0 -47 -60 -47 -85 0 -8 -3 -15 -8
-15 -12 0 -29 -68 -20 -83 4 -9 9 -28 10 -44 1 -15 6 -31 10 -34 12 -8 19 -49
9 -49 -5 0 -11 -9 -14 -20 -7 -26 -16 -25 -58 3 -23 15 -33 30 -31 43 1 11 -8
30 -22 43 -22 21 -32 23 -77 18 -29 -4 -55 -10 -58 -14 -13 -18 -46 -8 -49 15
l-3 22 -28 -20 c-16 -10 -31 -17 -35 -13 -3 3 -6 -1 -6 -10 0 -18 -5 -22 -40
-30 -22 -5 -29 -1 -44 27 -10 19 -15 39 -12 45 4 6 -4 23 -18 38 -25 27 -25
27 -47 7 -11 -10 -29 -18 -38 -16 -25 4 -61 -35 -61 -66 0 -21 -2 -24 -10 -12
-5 8 -10 11 -10 5 -1 -20 -20 20 -20 42 0 27 -52 42 -76 22 -13 -10 -19 -8
-38 12 -12 13 -20 31 -18 38 6 18 -18 4 -40 -25 -24 -30 -66 -37 -73 -13 -9
27 -35 24 -35 -3 -1 -29 -25 -62 -40 -53 -6 4 -9 18 -5 35 5 25 3 28 -27 34
-19 4 -34 2 -36 -4 -2 -5 -9 -7 -15 -3 -7 4 -27 6 -45 4 -25 -2 -33 1 -30 11
3 7 -1 19 -9 26 -7 7 -13 22 -13 33 0 15 -7 19 -34 19 -19 0 -37 -4 -40 -9 -7
-11 -64 8 -85 27 -9 9 -26 11 -51 7 -27 -5 -42 -2 -53 10 -9 9 -32 17 -51 18
-18 1 -41 8 -49 16 -9 7 -34 14 -54 16 -21 1 -46 6 -55 10 -11 4 -18 3 -18 -4
0 -13 -139 -6 -154 9 -15 15 -47 12 -88 -10 -20 -10 -46 -17 -59 -15 -12 2
-26 2 -30 -1 -5 -3 -39 -7 -76 -8 -71 -4 -99 -22 -89 -59 3 -11 -5 -24 -21
-35 -13 -9 -38 -29 -54 -44 -34 -32 -54 -35 -67 -12 -8 15 -74 25 -86 13 -3
-3 -1 -35 5 -73 5 -39 5 -74 0 -83 -6 -11 0 -29 21 -59 16 -24 34 -44 39 -44
5 0 9 -7 9 -15 0 -8 4 -23 9 -33 5 -9 17 -34 27 -55 11 -21 27 -43 36 -48 26
-14 22 -29 -7 -29 -30 0 -34 -29 -9 -55 25 -25 29 -95 9 -139 -15 -32 -21 -36
-55 -36 -33 0 -46 -9 -121 -83 -66 -65 -250 -294 -292 -364 -4 -7 0 -35 9 -63
11 -34 14 -64 10 -92 -6 -35 -3 -45 17 -67 25 -27 42 -71 27 -71 -5 0 -12 5
-15 10 -3 6 -19 10 -36 10 -16 0 -29 5 -29 10 0 6 -7 10 -15 10 -8 0 -15 -8
-15 -19 0 -10 -7 -24 -15 -31 -21 -17 -48 -77 -41 -89 4 -5 1 -13 -5 -16 -5
-4 -8 -14 -5 -22 4 -8 -8 -27 -28 -46 -25 -24 -35 -44 -40 -81 -7 -42 -5 -48
8 -43 12 5 24 -7 43 -42 17 -28 33 -46 41 -43 18 6 49 -24 56 -55 6 -23 10
-24 46 -18 36 6 40 4 45 -17 4 -14 5 -30 3 -38 -2 -8 5 -16 14 -18 12 -2 16 1
13 11 -5 10 1 13 25 9 24 -3 30 -1 30 15 0 10 5 24 11 30 13 13 49 5 49 -11 0
-24 54 -43 113 -41 40 2 62 -1 72 -12 10 -10 25 -12 45 -8 19 4 37 2 45 -5 20
-17 97 -18 103 -2 2 6 19 12 38 12 26 0 39 -7 56 -30 12 -16 29 -32 38 -35 9
-3 23 -17 30 -30 25 -47 105 -19 125 44 8 25 50 34 279 58 37 4 50 10 53 24 3
10 9 19 14 19 5 0 15 15 22 33 11 25 23 34 58 44 32 9 49 20 61 43 17 30 19
31 35 14 13 -12 18 -13 21 -4 3 7 -3 17 -12 22 -25 14 -19 28 14 28 17 0 30
-4 30 -10 0 -5 12 -10 26 -10 19 0 25 4 20 15 -6 18 5 20 22 3 20 -20 60 -19
67 3 7 20 25 27 25 9 0 -16 19 -12 42 10 24 22 38 26 38 10 0 -5 15 -10 34
-10 26 0 40 -7 56 -27 12 -16 34 -30 48 -33 18 -4 28 -12 30 -28 2 -12 8 -19
14 -16 6 4 14 1 18 -7 7 -10 14 -10 34 -1 23 10 26 9 26 -6 0 -10 -5 -23 -12
-30 -9 -9 -9 -12 0 -12 7 0 12 5 12 10 0 6 7 10 15 10 9 0 15 -6 14 -12 -4
-35 3 -41 17 -15 11 21 20 27 32 21 9 -3 33 -10 52 -13 29 -5 35 -11 41 -40 6
-29 29 -67 29 -48 0 4 9 3 19 -2 14 -8 22 -7 31 4 19 22 28 18 35 -15 4 -17
11 -30 17 -30 6 0 5 -7 -3 -17 -11 -13 -11 -17 -1 -20 13 -5 17 -33 4 -33 -4
0 -8 -16 -9 -36 -1 -19 -9 -44 -18 -54 -11 -12 -13 -20 -6 -25 6 -3 11 -15 11
-25 0 -14 6 -18 25 -14 20 3 25 0 25 -16 0 -11 7 -20 15 -20 8 0 12 -6 9 -14
-9 -23 14 -28 26 -6 6 11 17 20 25 20 21 0 16 -118 -5 -124 -10 -3 -8 -6 9
-11 20 -7 22 -13 18 -41 -5 -30 -3 -35 19 -40 13 -3 24 -13 24 -21 0 -11 7
-14 25 -11 17 4 25 1 25 -8 0 -8 6 -14 14 -14 11 0 14 -14 12 -62 -2 -35 -5
-70 -7 -78 -2 -8 -1 -15 3 -15 4 0 15 -10 23 -22 9 -13 25 -23 36 -23 11 0 17
-4 14 -10 -3 -5 -23 -10 -44 -10 -20 0 -42 -5 -48 -11 -9 -9 -16 -4 -30 18
-15 25 -20 28 -31 17 -6 -7 -12 -20 -12 -29 0 -8 -6 -15 -13 -15 -12 0 -50 37
-53 53 -1 4 -2 10 -3 13 0 4 -8 1 -17 -7 -13 -10 -17 -10 -25 2 -7 11 -9 11
-9 -4 0 -17 -22 -47 -34 -47 -2 0 -2 20 0 45 3 28 1 45 -5 45 -6 0 -11 -4 -11
-9 0 -5 -14 -11 -31 -15 -17 -3 -28 -10 -24 -16 3 -5 -1 -10 -11 -10 -12 0
-15 -5 -9 -23 4 -12 7 -33 7 -47 0 -14 7 -33 15 -42 15 -16 15 -20 -1 -37 -12
-13 -15 -27 -10 -45 6 -27 4 -29 -48 -40 -23 -5 -28 -12 -28 -36 0 -32 -26
-70 -47 -70 -7 0 -13 -4 -13 -10 0 -5 -6 -10 -14 -10 -8 0 -16 -7 -20 -15 -3
-8 -1 -15 5 -15 14 0 2 -72 -14 -82 -5 -3 -17 0 -24 8 -30 30 -70 1 -43 -31 7
-8 9 -15 6 -15 -4 0 -2 -9 4 -20 13 -24 72 -55 124 -64 33 -6 38 -5 33 8 -4 9
-2 16 4 16 6 0 7 4 4 10 -8 13 1 13 27 -1 13 -7 23 -8 27 -1 7 11 87 54 116
63 28 8 86 -9 113 -34 13 -12 22 -32 22 -51 0 -51 20 -15 26 48 l6 57 -27 -7
c-51 -13 -23 28 81 116 131 111 250 256 246 303 0 9 3 15 7 13 15 -10 33 41
26 73 -6 27 -4 31 14 31 32 0 71 22 71 39 0 11 3 12 8 5 12 -20 117 -11 142
11 11 10 19 23 17 29 -2 6 5 19 16 28 24 21 31 23 20 6 -13 -21 -31 -77 -26
-82 3 -3 13 0 23 6 12 8 26 8 47 1 46 -16 66 0 58 46 -5 31 -2 42 19 64 27 29
36 16 12 -16 -18 -23 3 -88 33 -102 11 -5 21 -13 21 -18 0 -5 9 -5 20 -2 12 4
27 1 35 -5 8 -7 20 -10 27 -8 7 3 19 -2 27 -9 22 -22 -15 -45 -59 -36 -19 3
-49 7 -65 9 -17 1 -48 7 -70 13 -22 6 -56 11 -75 11 -34 0 -34 0 -12 -16 12
-8 26 -13 31 -10 16 10 110 -17 116 -32 7 -18 -17 -35 -59 -42 -30 -5 -49 -30
-23 -30 9 0 17 6 20 13 3 9 9 7 24 -6 11 -9 27 -17 36 -17 9 0 17 -4 17 -10 0
-5 11 -12 25 -16 14 -3 25 -12 25 -20 0 -18 91 -45 108 -31 7 5 44 10 82 11
50 0 70 4 70 13 0 16 12 17 27 2 7 -7 15 -6 25 5 14 13 20 11 59 -22 31 -27
44 -33 47 -22 3 7 16 25 29 38 13 13 22 27 18 30 -8 8 58 30 70 23 6 -3 19 -7
30 -8 11 -2 25 -9 30 -16 19 -26 44 -27 47 -4 3 21 5 20 20 -8 10 -16 17 -24
18 -17 0 13 23 42 33 42 2 0 14 -9 26 -19 13 -11 28 -22 34 -25 8 -3 7 -9 -3
-18 -21 -18 -19 -42 4 -46 24 -5 36 14 36 56 0 29 8 37 33 33 4 0 7 165 7 368
l0 368 73 7 c347 32 332 29 335 54 l3 22 -270 0 -271 0 0 28 c0 21 19 46 86
112 47 47 95 99 106 115 l21 30 -31 -29 c-18 -17 -32 -26 -33 -20 0 5 -4 0 -9
-11 -5 -12 -8 79 -7 224 l2 244 37 19 c111 58 241 18 253 -76 8 -64 18 -56 13
12 -5 66 -22 99 -72 136 -23 17 -42 21 -109 21 -74 0 -87 -3 -141 -33 -58 -33
-59 -34 -78 -14 -20 19 -20 20 14 45 19 15 51 33 71 42 20 8 37 20 37 26 0 8
-5 8 -15 -1 -12 -10 -14 42 -16 417 -1 235 -2 438 -1 450 0 12 -6 24 -14 27
-8 3 -14 12 -14 20 0 8 -8 14 -17 14 -10 -1 -32 2 -50 6 -18 4 -34 3 -38 -3
-4 -7 -12 -7 -25 1 -15 10 -17 16 -8 32 6 12 15 24 21 27 5 4 0 10 -12 14 -25
8 -27 23 -6 52 17 24 11 36 -43 89 -13 12 -19 24 -15 27 11 6 75 21 93 22 35
1 8 85 -27 85 -7 0 -13 4 -13 8 0 5 -9 18 -20 30 -26 27 -41 67 -34 87 4 8 1
22 -6 30 -7 8 -9 15 -5 15 4 0 -4 9 -19 21 -14 11 -24 24 -21 29 3 5 -4 11
-15 15 -11 3 -20 13 -20 21 0 19 -19 18 -64 -6 -39 -20 -56 -19 -56 3 0 8 -18
12 -50 13 -41 1 -59 -5 -99 -32z m-661 -1535 c90 -41 124 -98 123 -204 -2
-133 -47 -206 -265 -430 l-150 -155 231 0 231 0 0 -30 0 -30 -275 0 -275 0 0
27 c0 20 26 53 113 142 190 195 252 266 287 332 30 56 35 73 35 136 0 80 -15
110 -75 151 -26 17 -47 22 -100 22 -57 0 -78 -5 -136 -34 -50 -26 -72 -32 -81
-24 -22 18 -14 37 25 62 93 59 227 74 312 35z m755 2 c115 -52 169 -189 169
-426 -1 -297 -89 -435 -276 -435 -175 1 -263 127 -275 395 -11 249 46 413 162
466 26 12 64 19 110 19 46 0 84 -7 110 -19z m475 3 c0 -2 -7 -4 -15 -4 -8 0
-15 4 -15 10 0 5 7 7 15 4 8 -4 15 -8 15 -10z"/>
<path d="M3629 2508 c-93 -62 -137 -311 -94 -534 27 -141 87 -204 195 -204
139 0 202 118 202 380 -1 268 -61 380 -207 380 -48 0 -70 -5 -96 -22z"/>
<path d="M5110 2497 c-18 -14 -64 -77 -59 -81 2 -1 12 6 22 16 9 10 14 18 11
18 -3 0 8 11 23 24 28 25 31 44 3 23z"/>
<path d="M4683 2267 c-20 -72 -88 -162 -243 -321 -83 -85 -150 -157 -150 -160
0 -3 22 -6 48 -6 38 0 51 4 58 19 9 19 32 47 139 175 33 39 76 96 95 126 19
30 39 58 45 62 5 4 7 8 4 8 -4 0 2 29 12 65 10 35 14 67 10 69 -4 3 -12 -14
-18 -37z"/>
<path d="M4970 1889 c0 -4 9 -26 19 -50 22 -50 65 -100 99 -118 41 -21 34 -6
-11 27 -27 19 -55 53 -75 89 -17 32 -32 55 -32 52z"/>
<path d="M3956 878 c1 -18 3 -35 4 -38 1 -3 1 -20 0 -37 -1 -30 1 -33 26 -33
l28 0 -24 -17 c-14 -10 -28 -18 -32 -18 -3 0 -10 -3 -14 -7 -4 -5 -14 -8 -22
-8 -8 0 -28 -12 -45 -26 -20 -17 -39 -24 -54 -21 -13 2 -23 0 -23 -5 0 -5 -15
-15 -33 -23 -18 -7 -45 -25 -60 -39 -16 -15 -45 -35 -65 -45 -44 -22 -69 -50
-69 -73 0 -23 44 -32 71 -15 22 15 53 16 73 4 6 -4 18 -4 27 -1 12 4 15 2 11
-9 -4 -9 9 -27 35 -50 38 -32 43 -34 71 -23 28 10 33 9 54 -19 30 -37 52 -122
36 -138 -15 -15 -14 -114 2 -120 6 -3 -3 -6 -20 -6 -21 -1 -33 -6 -33 -15 0
-7 15 -20 33 -27 17 -7 41 -23 52 -35 18 -20 26 -21 75 -13 30 5 59 15 65 22
5 7 18 16 28 20 9 3 17 11 17 17 0 5 6 10 13 10 8 0 22 18 32 40 19 43 91 89
142 91 20 1 22 3 8 6 -19 4 -20 10 -15 218 4 154 2 215 -6 215 -6 0 -10 11 -8
26 2 22 0 23 -13 12 -14 -11 -15 -10 -8 12 7 24 7 24 -12 8 -24 -22 -37 -23
-29 -3 4 10 -1 15 -15 15 -13 0 -19 5 -16 13 3 7 -4 19 -14 25 -10 7 -19 19
-19 27 0 8 -6 15 -12 16 -57 4 -70 7 -80 17 -7 7 -24 12 -39 12 -19 0 -30 6
-34 19 -3 11 -19 22 -35 26 -17 4 -30 11 -30 16 0 5 -6 9 -14 9 -9 0 -13 -10
-10 -32z m9 -668 c3 -5 1 -10 -4 -10 -6 0 -11 5 -11 10 0 6 2 10 4 10 3 0 8
-4 11 -10z"/>
<path d="M4286 755 c-3 -8 -1 -15 4 -15 6 0 10 7 10 15 0 8 -2 15 -4 15 -2 0
-6 -7 -10 -15z"/>
<path d="M4440 605 c0 -8 7 -15 16 -15 14 0 14 3 4 15 -7 8 -14 15 -16 15 -2
0 -4 -7 -4 -15z"/>
</g>
</svg>
