<svg width="681" height="152" viewBox="0 0 681 152" fill="none" xmlns="http://www.w3.org/2000/svg">
<path d="M33.5449 17.3066V40.4023C33.5449 43.0391 32.9508 45.3503 31.7627 47.3359C30.5908 49.3216 28.89 50.8434 26.6602 51.9014C24.4303 52.9593 21.7936 53.4883 18.75 53.4883C14.1602 53.4883 10.5957 52.3164 8.05664 49.9727C5.51758 47.6126 4.24805 44.39 4.24805 40.3047V17.3066H11.792V39.1572C11.792 41.9079 12.3454 43.9261 13.4521 45.2119C14.5589 46.4977 16.39 47.1406 18.9453 47.1406C21.4193 47.1406 23.2096 46.4977 24.3164 45.2119C25.4395 43.9098 26.001 41.8753 26.001 39.1084V17.3066H33.5449ZM66.6357 53L64.0479 44.5039H51.0352L48.4473 53H40.293L52.8906 17.1602H62.1436L74.79 53H66.6357ZM62.2412 38.1562C59.8486 30.4577 58.4977 26.1038 58.1885 25.0947C57.8955 24.0856 57.6839 23.2881 57.5537 22.7021C57.0166 24.7855 55.4785 29.9368 52.9395 38.1562H62.2412ZM104.072 35.1533C104.072 41.387 103.047 46.0013 100.996 48.9961C98.9616 51.9909 95.8203 53.4883 91.5723 53.4883C87.4544 53.4883 84.3457 51.9421 82.2461 48.8496C80.1628 45.7572 79.1211 41.1917 79.1211 35.1533C79.1211 28.8545 80.1383 24.2158 82.1729 21.2373C84.2074 18.2425 87.3405 16.7451 91.5723 16.7451C95.6901 16.7451 98.7988 18.3076 100.898 21.4326C103.014 24.5576 104.072 29.1312 104.072 35.1533ZM86.6162 35.1533C86.6162 39.5316 86.9906 42.6729 87.7393 44.5771C88.5042 46.4652 89.7819 47.4092 91.5723 47.4092C93.3301 47.4092 94.5996 46.4489 95.3809 44.5283C96.1621 42.6077 96.5527 39.4827 96.5527 35.1533C96.5527 30.7751 96.154 27.6338 95.3564 25.7295C94.5752 23.8089 93.3138 22.8486 91.5723 22.8486C89.7982 22.8486 88.5286 23.8089 87.7637 25.7295C86.9987 27.6338 86.6162 30.7751 86.6162 35.1533ZM133.94 25.29C133.94 27.5199 133.265 29.416 131.914 30.9785C130.563 32.541 128.667 33.6152 126.226 34.2012V34.3477C129.106 34.7057 131.287 35.5846 132.769 36.9844C134.25 38.3678 134.99 40.2396 134.99 42.5996C134.99 46.0339 133.745 48.7113 131.255 50.6318C128.765 52.5361 125.208 53.4883 120.586 53.4883C116.712 53.4883 113.278 52.8454 110.283 51.5596V45.1387C111.667 45.8385 113.188 46.4082 114.849 46.8477C116.509 47.2871 118.153 47.5068 119.78 47.5068C122.271 47.5068 124.11 47.0837 125.298 46.2373C126.486 45.391 127.08 44.0319 127.08 42.1602C127.08 40.4837 126.396 39.2956 125.029 38.5957C123.662 37.8958 121.481 37.5459 118.486 37.5459H115.776V31.7598H118.535C121.302 31.7598 123.32 31.4017 124.59 30.6855C125.876 29.9531 126.519 28.708 126.519 26.9502C126.519 24.2484 124.826 22.8975 121.44 22.8975C120.269 22.8975 119.072 23.0928 117.852 23.4834C116.647 23.874 115.304 24.5495 113.823 25.5098L110.332 20.3096C113.587 17.9658 117.469 16.7939 121.978 16.7939C125.672 16.7939 128.586 17.5426 130.718 19.04C132.866 20.5374 133.94 22.6208 133.94 25.29ZM181.689 35.1533C181.689 41.387 180.664 46.0013 178.613 48.9961C176.579 51.9909 173.438 53.4883 169.189 53.4883C165.072 53.4883 161.963 51.9421 159.863 48.8496C157.78 45.7572 156.738 41.1917 156.738 35.1533C156.738 28.8545 157.756 24.2158 159.79 21.2373C161.825 18.2425 164.958 16.7451 169.189 16.7451C173.307 16.7451 176.416 18.3076 178.516 21.4326C180.632 24.5576 181.689 29.1312 181.689 35.1533ZM164.233 35.1533C164.233 39.5316 164.608 42.6729 165.356 44.5771C166.121 46.4652 167.399 47.4092 169.189 47.4092C170.947 47.4092 172.217 46.4489 172.998 44.5283C173.779 42.6077 174.17 39.4827 174.17 35.1533C174.17 30.7751 173.771 27.6338 172.974 25.7295C172.192 23.8089 170.931 22.8486 169.189 22.8486C167.415 22.8486 166.146 23.8089 165.381 25.7295C164.616 27.6338 164.233 30.7751 164.233 35.1533ZM212.949 53H187.998V47.751L196.958 38.6934C199.611 35.9753 201.344 34.0954 202.158 33.0537C202.972 31.9958 203.558 31.0192 203.916 30.124C204.274 29.2288 204.453 28.3011 204.453 27.3408C204.453 25.9085 204.054 24.8424 203.257 24.1426C202.476 23.4427 201.426 23.0928 200.107 23.0928C198.724 23.0928 197.381 23.4102 196.079 24.0449C194.777 24.6797 193.418 25.583 192.002 26.7549L187.9 21.8965C189.658 20.3991 191.115 19.3411 192.271 18.7227C193.426 18.1042 194.688 17.6322 196.055 17.3066C197.422 16.9648 198.952 16.7939 200.645 16.7939C202.874 16.7939 204.844 17.2008 206.553 18.0146C208.262 18.8285 209.588 19.9678 210.532 21.4326C211.476 22.8975 211.948 24.5739 211.948 26.4619C211.948 28.1058 211.655 29.652 211.069 31.1006C210.5 32.5329 209.604 34.0059 208.384 35.5195C207.179 37.0332 205.047 39.1898 201.987 41.9893L197.397 46.3105V46.6523H212.949V53ZM259.307 35.1533C259.307 41.387 258.281 46.0013 256.23 48.9961C254.196 51.9909 251.055 53.4883 246.807 53.4883C242.689 53.4883 239.58 51.9421 237.48 48.8496C235.397 45.7572 234.355 41.1917 234.355 35.1533C234.355 28.8545 235.373 24.2158 237.407 21.2373C239.442 18.2425 242.575 16.7451 246.807 16.7451C250.924 16.7451 254.033 18.3076 256.133 21.4326C258.249 24.5576 259.307 29.1312 259.307 35.1533ZM241.851 35.1533C241.851 39.5316 242.225 42.6729 242.974 44.5771C243.739 46.4652 245.016 47.4092 246.807 47.4092C248.564 47.4092 249.834 46.4489 250.615 44.5283C251.396 42.6077 251.787 39.4827 251.787 35.1533C251.787 30.7751 251.388 27.6338 250.591 25.7295C249.81 23.8089 248.548 22.8486 246.807 22.8486C245.033 22.8486 243.763 23.8089 242.998 25.7295C242.233 27.6338 241.851 30.7751 241.851 35.1533ZM290.371 35.1533C290.371 41.387 289.346 46.0013 287.295 48.9961C285.26 51.9909 282.119 53.4883 277.871 53.4883C273.753 53.4883 270.645 51.9421 268.545 48.8496C266.462 45.7572 265.42 41.1917 265.42 35.1533C265.42 28.8545 266.437 24.2158 268.472 21.2373C270.506 18.2425 273.639 16.7451 277.871 16.7451C281.989 16.7451 285.098 18.3076 287.197 21.4326C289.313 24.5576 290.371 29.1312 290.371 35.1533ZM272.915 35.1533C272.915 39.5316 273.289 42.6729 274.038 44.5771C274.803 46.4652 276.081 47.4092 277.871 47.4092C279.629 47.4092 280.898 46.4489 281.68 44.5283C282.461 42.6077 282.852 39.4827 282.852 35.1533C282.852 30.7751 282.453 27.6338 281.655 25.7295C280.874 23.8089 279.613 22.8486 277.871 22.8486C276.097 22.8486 274.827 23.8089 274.062 25.7295C273.298 27.6338 272.915 30.7751 272.915 35.1533ZM315.332 53H307.788V32.3457L307.861 28.9521L307.983 25.2412C306.73 26.4945 305.859 27.3164 305.371 27.707L301.27 31.0029L297.632 26.4619L309.131 17.3066H315.332V53ZM367.988 35.1533C367.988 41.387 366.963 46.0013 364.912 48.9961C362.878 51.9909 359.736 53.4883 355.488 53.4883C351.37 53.4883 348.262 51.9421 346.162 48.8496C344.079 45.7572 343.037 41.1917 343.037 35.1533C343.037 28.8545 344.054 24.2158 346.089 21.2373C348.123 18.2425 351.257 16.7451 355.488 16.7451C359.606 16.7451 362.715 18.3076 364.814 21.4326C366.93 24.5576 367.988 29.1312 367.988 35.1533ZM350.532 35.1533C350.532 39.5316 350.907 42.6729 351.655 44.5771C352.42 46.4652 353.698 47.4092 355.488 47.4092C357.246 47.4092 358.516 46.4489 359.297 44.5283C360.078 42.6077 360.469 39.4827 360.469 35.1533C360.469 30.7751 360.07 27.6338 359.272 25.7295C358.491 23.8089 357.23 22.8486 355.488 22.8486C353.714 22.8486 352.445 23.8089 351.68 25.7295C350.915 27.6338 350.532 30.7751 350.532 35.1533ZM399.053 35.1533C399.053 41.387 398.027 46.0013 395.977 48.9961C393.942 51.9909 390.801 53.4883 386.553 53.4883C382.435 53.4883 379.326 51.9421 377.227 48.8496C375.143 45.7572 374.102 41.1917 374.102 35.1533C374.102 28.8545 375.119 24.2158 377.153 21.2373C379.188 18.2425 382.321 16.7451 386.553 16.7451C390.671 16.7451 393.779 18.3076 395.879 21.4326C397.995 24.5576 399.053 29.1312 399.053 35.1533ZM381.597 35.1533C381.597 39.5316 381.971 42.6729 382.72 44.5771C383.485 46.4652 384.762 47.4092 386.553 47.4092C388.311 47.4092 389.58 46.4489 390.361 44.5283C391.143 42.6077 391.533 39.4827 391.533 35.1533C391.533 30.7751 391.134 27.6338 390.337 25.7295C389.556 23.8089 388.294 22.8486 386.553 22.8486C384.779 22.8486 383.509 23.8089 382.744 25.7295C381.979 27.6338 381.597 30.7751 381.597 35.1533ZM424.014 53H416.47V32.3457L416.543 28.9521L416.665 25.2412C415.412 26.4945 414.541 27.3164 414.053 27.707L409.951 31.0029L406.313 26.4619L417.812 17.3066H424.014V53ZM476.67 35.1533C476.67 41.387 475.645 46.0013 473.594 48.9961C471.559 51.9909 468.418 53.4883 464.17 53.4883C460.052 53.4883 456.943 51.9421 454.844 48.8496C452.76 45.7572 451.719 41.1917 451.719 35.1533C451.719 28.8545 452.736 24.2158 454.771 21.2373C456.805 18.2425 459.938 16.7451 464.17 16.7451C468.288 16.7451 471.396 18.3076 473.496 21.4326C475.612 24.5576 476.67 29.1312 476.67 35.1533ZM459.214 35.1533C459.214 39.5316 459.588 42.6729 460.337 44.5771C461.102 46.4652 462.38 47.4092 464.17 47.4092C465.928 47.4092 467.197 46.4489 467.979 44.5283C468.76 42.6077 469.15 39.4827 469.15 35.1533C469.15 30.7751 468.752 27.6338 467.954 25.7295C467.173 23.8089 465.911 22.8486 464.17 22.8486C462.396 22.8486 461.126 23.8089 460.361 25.7295C459.596 27.6338 459.214 30.7751 459.214 35.1533ZM501.631 53H494.087V32.3457L494.16 28.9521L494.282 25.2412C493.029 26.4945 492.158 27.3164 491.67 27.707L487.568 31.0029L483.931 26.4619L495.43 17.3066H501.631V53ZM548.184 53H540.64V32.3457L540.713 28.9521L540.835 25.2412C539.582 26.4945 538.711 27.3164 538.223 27.707L534.121 31.0029L530.483 26.4619L541.982 17.3066H548.184V53ZM585.547 53H560.596V47.751L569.556 38.6934C572.209 35.9753 573.942 34.0954 574.756 33.0537C575.57 31.9958 576.156 31.0192 576.514 30.124C576.872 29.2288 577.051 28.3011 577.051 27.3408C577.051 25.9085 576.652 24.8424 575.854 24.1426C575.073 23.4427 574.023 23.0928 572.705 23.0928C571.322 23.0928 569.979 23.4102 568.677 24.0449C567.375 24.6797 566.016 25.583 564.6 26.7549L560.498 21.8965C562.256 20.3991 563.713 19.3411 564.868 18.7227C566.024 18.1042 567.285 17.6322 568.652 17.3066C570.02 16.9648 571.549 16.7939 573.242 16.7939C575.472 16.7939 577.441 17.2008 579.15 18.0146C580.859 18.8285 582.186 19.9678 583.13 21.4326C584.074 22.8975 584.546 24.5739 584.546 26.4619C584.546 28.1058 584.253 29.652 583.667 31.1006C583.097 32.5329 582.202 34.0059 580.981 35.5195C579.777 37.0332 577.645 39.1898 574.585 41.9893L569.995 46.3105V46.6523H585.547V53ZM615.22 25.29C615.22 27.5199 614.544 29.416 613.193 30.9785C611.842 32.541 609.946 33.6152 607.505 34.2012V34.3477C610.386 34.7057 612.567 35.5846 614.048 36.9844C615.529 38.3678 616.27 40.2396 616.27 42.5996C616.27 46.0339 615.024 48.7113 612.534 50.6318C610.044 52.5361 606.488 53.4883 601.865 53.4883C597.992 53.4883 594.557 52.8454 591.562 51.5596V45.1387C592.946 45.8385 594.468 46.4082 596.128 46.8477C597.788 47.2871 599.432 47.5068 601.06 47.5068C603.55 47.5068 605.389 47.0837 606.577 46.2373C607.765 45.391 608.359 44.0319 608.359 42.1602C608.359 40.4837 607.676 39.2956 606.309 38.5957C604.941 37.8958 602.76 37.5459 599.766 37.5459H597.056V31.7598H599.814C602.581 31.7598 604.6 31.4017 605.869 30.6855C607.155 29.9531 607.798 28.708 607.798 26.9502C607.798 24.2484 606.105 22.8975 602.72 22.8975C601.548 22.8975 600.352 23.0928 599.131 23.4834C597.926 23.874 596.584 24.5495 595.103 25.5098L591.611 20.3096C594.867 17.9658 598.748 16.7939 603.257 16.7939C606.951 16.7939 609.865 17.5426 611.997 19.04C614.146 20.5374 615.22 22.6208 615.22 25.29ZM648.481 45.6025H644.185V53H636.812V45.6025H621.577V40.3535L637.227 17.3066H644.185V39.7432H648.481V45.6025ZM636.812 39.7432V33.6885C636.812 32.6794 636.852 31.2145 636.934 29.2939C637.015 27.3734 637.08 26.2585 637.129 25.9492H636.934C636.331 27.2839 635.607 28.5859 634.761 29.8555L628.218 39.7432H636.812ZM666.777 30.1973C670.228 30.1973 672.97 31.1657 675.005 33.1025C677.056 35.0394 678.081 37.6924 678.081 41.0615C678.081 45.0492 676.852 48.1172 674.395 50.2656C671.937 52.4141 668.421 53.4883 663.848 53.4883C659.876 53.4883 656.67 52.8454 654.229 51.5596V45.041C655.514 45.7246 657.012 46.2861 658.721 46.7256C660.43 47.1488 662.049 47.3604 663.579 47.3604C668.185 47.3604 670.488 45.4723 670.488 41.6963C670.488 38.0993 668.104 36.3008 663.335 36.3008C662.472 36.3008 661.52 36.3903 660.479 36.5693C659.437 36.7321 658.59 36.9111 657.939 37.1064L654.937 35.4951L656.279 17.3066H675.64V23.7031H662.896L662.236 30.71L663.091 30.5391C664.084 30.3112 665.312 30.1973 666.777 30.1973Z" fill="#222288"/>
<path d="M10.1094 112L8.9541 109.048H5.23438L4.0918 112H3L6.66895 102.682H7.57666L11.2266 112H10.1094ZM8.61768 108.077L7.53857 105.202C7.39893 104.838 7.25505 104.391 7.10693 103.862C7.01383 104.269 6.88053 104.715 6.70703 105.202L5.61523 108.077H8.61768ZM18.3867 105.424C18.3867 106.363 18.0651 107.087 17.4219 107.595C16.7829 108.098 15.8667 108.35 14.6733 108.35H13.5815V112H12.5024V102.72H14.9082C17.2272 102.72 18.3867 103.621 18.3867 105.424ZM13.5815 107.423H14.5527C15.5091 107.423 16.201 107.269 16.6284 106.96C17.0558 106.651 17.2695 106.156 17.2695 105.475C17.2695 104.861 17.0685 104.404 16.6665 104.104C16.2645 103.803 15.6382 103.653 14.7876 103.653H13.5815V107.423ZM27.0132 112H25.7056L21.4146 107.296V112H20.3354V102.72H21.4146V107.214L25.5977 102.72H26.8354L22.7285 107.227L27.0132 112ZM29.2412 110.489L29.3364 110.635C29.2264 111.058 29.0677 111.549 28.8604 112.108C28.653 112.671 28.4372 113.193 28.2129 113.676H27.4194C27.5337 113.236 27.6585 112.692 27.7939 112.044C27.9336 111.397 28.0309 110.879 28.0859 110.489H29.2412ZM40.7051 108.515C40.7051 109.649 40.4194 110.536 39.8481 111.175C39.2769 111.81 38.4876 112.127 37.4805 112.127C36.8584 112.127 36.3062 111.981 35.8237 111.689C35.3413 111.397 34.9689 110.978 34.7065 110.432C34.4442 109.886 34.313 109.247 34.313 108.515C34.313 107.381 34.5965 106.499 35.1636 105.868C35.7306 105.233 36.5177 104.916 37.5249 104.916C38.4982 104.916 39.2705 105.24 39.8418 105.887C40.4173 106.535 40.7051 107.411 40.7051 108.515ZM35.4048 108.515C35.4048 109.404 35.5825 110.081 35.938 110.546C36.2935 111.012 36.8161 111.245 37.5059 111.245C38.1956 111.245 38.7183 111.014 39.0737 110.553C39.4334 110.087 39.6133 109.408 39.6133 108.515C39.6133 107.631 39.4334 106.96 39.0737 106.503C38.7183 106.042 38.1914 105.811 37.4932 105.811C36.8034 105.811 36.2829 106.037 35.9316 106.49C35.5804 106.943 35.4048 107.618 35.4048 108.515ZM42.1968 107.83C42.1968 106.306 42.4211 105.119 42.8696 104.269C43.3182 103.414 44.0291 102.881 45.0024 102.669C46.2127 102.411 47.2791 102.201 48.2017 102.041L48.3984 102.967C46.93 103.213 45.8805 103.407 45.25 103.551C44.6364 103.691 44.1751 104.021 43.8662 104.542C43.5615 105.062 43.3944 105.771 43.3647 106.668H43.4409C43.7033 106.312 44.0418 106.033 44.4565 105.83C44.8713 105.627 45.305 105.525 45.7578 105.525C46.6126 105.525 47.2791 105.803 47.7573 106.357C48.2355 106.911 48.4746 107.679 48.4746 108.661C48.4746 109.749 48.1974 110.599 47.6431 111.213C47.0887 111.822 46.3164 112.127 45.3262 112.127C44.3486 112.127 43.5827 111.752 43.0283 111.003C42.474 110.254 42.1968 109.196 42.1968 107.83ZM45.4214 111.245C46.7121 111.245 47.3574 110.422 47.3574 108.775C47.3574 107.205 46.7713 106.42 45.5991 106.42C45.2775 106.42 44.9665 106.488 44.666 106.624C44.3698 106.755 44.0968 106.93 43.8472 107.15C43.6017 107.37 43.4113 107.597 43.2759 107.83C43.2759 108.943 43.4515 109.791 43.8027 110.375C44.154 110.955 44.6935 111.245 45.4214 111.245ZM55.5015 112H54.4351V105.944H52.3467C52.2324 107.451 52.0737 108.646 51.8706 109.531C51.6675 110.415 51.403 111.063 51.0771 111.473C50.7555 111.884 50.3451 112.089 49.8457 112.089C49.6172 112.089 49.4352 112.063 49.2998 112.013V111.232C49.3929 111.257 49.4987 111.27 49.6172 111.27C50.1038 111.27 50.491 110.756 50.7788 109.728C51.0666 108.699 51.2845 107.138 51.4326 105.043H55.5015V112ZM62.0205 112L61.811 111.01H61.7603C61.4132 111.446 61.0662 111.742 60.7192 111.898C60.3765 112.051 59.9469 112.127 59.4307 112.127C58.7409 112.127 58.1992 111.949 57.8057 111.594C57.4163 111.238 57.2217 110.733 57.2217 110.077C57.2217 108.672 58.3452 107.935 60.5923 107.868L61.7729 107.83V107.398C61.7729 106.852 61.6545 106.45 61.4175 106.192C61.1847 105.93 60.8102 105.798 60.2939 105.798C59.7142 105.798 59.0583 105.976 58.3262 106.332L58.0024 105.525C58.3452 105.339 58.7197 105.193 59.126 105.087C59.5365 104.982 59.9469 104.929 60.3574 104.929C61.1868 104.929 61.8005 105.113 62.1982 105.481C62.6003 105.849 62.8013 106.439 62.8013 107.252V112H62.0205ZM59.6401 111.257C60.2961 111.257 60.8102 111.077 61.1826 110.718C61.5592 110.358 61.7476 109.854 61.7476 109.207V108.579L60.6938 108.623C59.856 108.653 59.2508 108.784 58.8784 109.017C58.5103 109.245 58.3262 109.603 58.3262 110.089C58.3262 110.47 58.4404 110.76 58.6689 110.959C58.9017 111.158 59.2254 111.257 59.6401 111.257ZM67.7588 112.127C66.7516 112.127 65.9709 111.818 65.4165 111.2C64.8664 110.578 64.5913 109.7 64.5913 108.566C64.5913 107.402 64.8706 106.503 65.4292 105.868C65.992 105.233 66.7918 104.916 67.8286 104.916C68.1629 104.916 68.4972 104.952 68.8315 105.024C69.1659 105.096 69.4282 105.181 69.6187 105.278L69.2949 106.173C69.0622 106.08 68.8083 106.004 68.5332 105.944C68.2581 105.881 68.0148 105.849 67.8032 105.849C66.3898 105.849 65.6831 106.75 65.6831 108.553C65.6831 109.408 65.8545 110.064 66.1973 110.521C66.5443 110.978 67.0563 111.207 67.7334 111.207C68.3132 111.207 68.9077 111.082 69.5171 110.832V111.765C69.0516 112.006 68.4655 112.127 67.7588 112.127ZM75.8647 105.944H73.605V112H72.5513V105.944H70.3169V105.043H75.8647V105.944ZM78.2959 112H77.2422V105.043H78.2959V112ZM77.1533 103.158C77.1533 102.917 77.2126 102.741 77.3311 102.631C77.4495 102.517 77.5977 102.459 77.7754 102.459C77.9447 102.459 78.0907 102.517 78.2134 102.631C78.3361 102.745 78.3975 102.921 78.3975 103.158C78.3975 103.395 78.3361 103.572 78.2134 103.691C78.0907 103.805 77.9447 103.862 77.7754 103.862C77.5977 103.862 77.4495 103.805 77.3311 103.691C77.2126 103.572 77.1533 103.395 77.1533 103.158ZM81.6348 110.489L81.73 110.635C81.62 111.058 81.4613 111.549 81.2539 112.108C81.0465 112.671 80.8307 113.193 80.6064 113.676H79.813C79.9272 113.236 80.0521 112.692 80.1875 112.044C80.3271 111.397 80.4245 110.879 80.4795 110.489H81.6348ZM90.7056 110.984L90.9023 110.394L91.1753 109.645L93.0605 105.056H94.3999V112H93.4668V106.255L93.3398 106.624L92.9717 107.595L91.1753 112H90.293L88.4966 107.582C88.2723 107.015 88.1178 106.573 88.0332 106.255V112H87.0938V105.056H88.3823L90.2041 109.467C90.3861 109.933 90.5532 110.438 90.7056 110.984ZM97.707 112H96.6533V105.043H97.707V112ZM96.5645 103.158C96.5645 102.917 96.6237 102.741 96.7422 102.631C96.8607 102.517 97.0088 102.459 97.1865 102.459C97.3558 102.459 97.5018 102.517 97.6245 102.631C97.7472 102.745 97.8086 102.921 97.8086 103.158C97.8086 103.395 97.7472 103.572 97.6245 103.691C97.5018 103.805 97.3558 103.862 97.1865 103.862C97.0088 103.862 96.8607 103.805 96.7422 103.691C96.6237 103.572 96.5645 103.395 96.5645 103.158ZM102.722 112.127C101.715 112.127 100.934 111.818 100.379 111.2C99.8293 110.578 99.5542 109.7 99.5542 108.566C99.5542 107.402 99.8335 106.503 100.392 105.868C100.955 105.233 101.755 104.916 102.792 104.916C103.126 104.916 103.46 104.952 103.794 105.024C104.129 105.096 104.391 105.181 104.582 105.278L104.258 106.173C104.025 106.08 103.771 106.004 103.496 105.944C103.221 105.881 102.978 105.849 102.766 105.849C101.353 105.849 100.646 106.75 100.646 108.553C100.646 109.408 100.817 110.064 101.16 110.521C101.507 110.978 102.019 111.207 102.696 111.207C103.276 111.207 103.871 111.082 104.48 110.832V111.765C104.014 112.006 103.428 112.127 102.722 112.127ZM110.828 105.944H108.568V112H107.514V105.944H105.28V105.043H110.828V105.944ZM116.483 112L116.274 111.01H116.223C115.876 111.446 115.529 111.742 115.182 111.898C114.839 112.051 114.41 112.127 113.894 112.127C113.204 112.127 112.662 111.949 112.269 111.594C111.879 111.238 111.685 110.733 111.685 110.077C111.685 108.672 112.808 107.935 115.055 107.868L116.236 107.83V107.398C116.236 106.852 116.117 106.45 115.88 106.192C115.648 105.93 115.273 105.798 114.757 105.798C114.177 105.798 113.521 105.976 112.789 106.332L112.465 105.525C112.808 105.339 113.183 105.193 113.589 105.087C113.999 104.982 114.41 104.929 114.82 104.929C115.65 104.929 116.263 105.113 116.661 105.481C117.063 105.849 117.264 106.439 117.264 107.252V112H116.483ZM114.103 111.257C114.759 111.257 115.273 111.077 115.646 110.718C116.022 110.358 116.21 109.854 116.21 109.207V108.579L115.157 108.623C114.319 108.653 113.714 108.784 113.341 109.017C112.973 109.245 112.789 109.603 112.789 110.089C112.789 110.47 112.903 110.76 113.132 110.959C113.365 111.158 113.688 111.257 114.103 111.257ZM5.1709 130H4.11719V123.043H5.1709V130ZM4.02832 121.158C4.02832 120.917 4.08757 120.741 4.20605 120.631C4.32454 120.517 4.47266 120.459 4.65039 120.459C4.81966 120.459 4.96566 120.517 5.08838 120.631C5.2111 120.745 5.27246 120.921 5.27246 121.158C5.27246 121.395 5.2111 121.572 5.08838 121.691C4.96566 121.805 4.81966 121.862 4.65039 121.862C4.47266 121.862 4.32454 121.805 4.20605 121.691C4.08757 121.572 4.02832 121.395 4.02832 121.158ZM8.73193 125.931C10.048 125.931 10.7061 125.567 10.7061 124.839C10.7061 124.154 10.1729 123.811 9.10645 123.811C8.7806 123.811 8.48438 123.841 8.21777 123.9C7.95117 123.959 7.60205 124.078 7.17041 124.255L6.7959 123.398C7.5153 123.077 8.30029 122.916 9.15088 122.916C9.95068 122.916 10.5812 123.081 11.0425 123.411C11.5037 123.737 11.7344 124.183 11.7344 124.75C11.7344 125.529 11.3006 126.039 10.4331 126.28V126.331C10.9663 126.488 11.3556 126.712 11.6011 127.004C11.8465 127.292 11.9692 127.653 11.9692 128.089C11.9692 128.733 11.709 129.234 11.1885 129.594C10.6722 129.949 9.95703 130.127 9.04297 130.127C8.04004 130.127 7.26562 129.977 6.71973 129.676V128.711C7.49414 129.075 8.27702 129.257 9.06836 129.257C9.67773 129.257 10.1369 129.154 10.4458 128.946C10.759 128.735 10.9155 128.432 10.9155 128.039C10.9155 127.23 10.2575 126.826 8.94141 126.826H7.97656V125.931H8.73193ZM19.8467 130.127C18.8395 130.127 18.0588 129.818 17.5044 129.2C16.9543 128.578 16.6792 127.7 16.6792 126.566C16.6792 125.402 16.9585 124.503 17.5171 123.868C18.0799 123.233 18.8797 122.916 19.9165 122.916C20.2508 122.916 20.5851 122.952 20.9194 123.024C21.2537 123.096 21.5161 123.181 21.7065 123.278L21.3828 124.173C21.1501 124.08 20.8962 124.004 20.6211 123.944C20.346 123.881 20.1027 123.849 19.8911 123.849C18.4777 123.849 17.771 124.75 17.771 126.553C17.771 127.408 17.9424 128.064 18.2852 128.521C18.6322 128.978 19.1442 129.207 19.8213 129.207C20.401 129.207 20.9956 129.082 21.605 128.832V129.765C21.1395 130.006 20.5534 130.127 19.8467 130.127ZM24.3154 130H23.2617V123.043H29.1016V130H28.0352V123.957H24.3154V130ZM34.2749 130.127C33.2466 130.127 32.4341 129.814 31.8374 129.188C31.245 128.561 30.9487 127.692 30.9487 126.579C30.9487 125.457 31.2238 124.566 31.7739 123.906C32.3283 123.246 33.071 122.916 34.002 122.916C34.8737 122.916 35.5635 123.204 36.0713 123.779C36.5791 124.351 36.833 125.106 36.833 126.045V126.712H32.0405C32.0617 127.529 32.2669 128.149 32.6562 128.572C33.0498 128.995 33.6021 129.207 34.313 129.207C35.062 129.207 35.8026 129.05 36.5347 128.737V129.676C36.1623 129.837 35.8089 129.951 35.4746 130.019C35.1445 130.091 34.7446 130.127 34.2749 130.127ZM33.9893 123.798C33.4307 123.798 32.9842 123.98 32.6499 124.344C32.3198 124.708 32.1252 125.212 32.0659 125.855H35.7031C35.7031 125.191 35.555 124.683 35.2588 124.332C34.9626 123.976 34.5394 123.798 33.9893 123.798ZM45.4214 132.406H44.3677V130H38.6357V123.043H39.6895V129.092H43.3838V123.043H44.4375V129.092H45.4214V132.406ZM51.0518 130L50.8423 129.01H50.7915C50.4445 129.446 50.0975 129.742 49.7505 129.898C49.4077 130.051 48.9782 130.127 48.4619 130.127C47.7721 130.127 47.2305 129.949 46.8369 129.594C46.4476 129.238 46.2529 128.733 46.2529 128.077C46.2529 126.672 47.3765 125.935 49.6235 125.868L50.8042 125.83V125.398C50.8042 124.852 50.6857 124.45 50.4487 124.192C50.216 123.93 49.8415 123.798 49.3252 123.798C48.7454 123.798 48.0895 123.976 47.3574 124.332L47.0337 123.525C47.3765 123.339 47.751 123.193 48.1572 123.087C48.5677 122.982 48.9782 122.929 49.3887 122.929C50.2181 122.929 50.8317 123.113 51.2295 123.481C51.6315 123.849 51.8325 124.439 51.8325 125.252V130H51.0518ZM48.6714 129.257C49.3273 129.257 49.8415 129.077 50.2139 128.718C50.5905 128.358 50.7788 127.854 50.7788 127.207V126.579L49.7251 126.623C48.8872 126.653 48.2821 126.784 47.9097 127.017C47.5415 127.245 47.3574 127.603 47.3574 128.089C47.3574 128.47 47.4717 128.76 47.7002 128.959C47.9329 129.158 48.2567 129.257 48.6714 129.257ZM59.1958 130H58.1294V123.944H56.041C55.9268 125.451 55.7681 126.646 55.5649 127.531C55.3618 128.415 55.0973 129.063 54.7715 129.473C54.4499 129.884 54.0394 130.089 53.54 130.089C53.3115 130.089 53.1296 130.063 52.9941 130.013V129.232C53.0872 129.257 53.193 129.27 53.3115 129.27C53.7982 129.27 54.1854 128.756 54.4731 127.728C54.7609 126.699 54.9788 125.138 55.127 123.043H59.1958V130ZM62.4902 125.918H64.6357C66.4131 125.918 67.3018 126.572 67.3018 127.88C67.3018 128.565 67.069 129.09 66.6035 129.454C66.1423 129.818 65.4652 130 64.5723 130H61.4365V123.043H62.4902V125.918ZM62.4902 126.826V129.118H64.5215C65.0801 129.118 65.5075 129.02 65.8037 128.826C66.0999 128.631 66.248 128.337 66.248 127.943C66.248 127.558 66.1105 127.277 65.8354 127.099C65.5646 126.917 65.116 126.826 64.4897 126.826H62.4902ZM70.1836 123.043V125.957H74.0811V123.043H75.1348V130H74.0811V126.864H70.1836V130H69.1299V123.043H70.1836ZM78.3594 123.043V127.455L78.3149 128.61L78.2959 128.972L82.0601 123.043H83.374V130H82.3901V125.747L82.4092 124.909L82.4409 124.084L78.6831 130H77.3691V123.043H78.3594ZM89.2202 128.984L89.417 128.394L89.6899 127.645L91.5752 123.056H92.9146V130H91.9814V124.255L91.8545 124.624L91.4863 125.595L89.6899 130H88.8076L87.0112 125.582C86.7869 125.015 86.6325 124.573 86.5479 124.255V130H85.6084V123.056H86.897L88.7188 127.467C88.9007 127.933 89.0679 128.438 89.2202 128.984ZM6.89746 148.127C5.8903 148.127 5.10954 147.818 4.55518 147.2C4.00505 146.578 3.72998 145.7 3.72998 144.566C3.72998 143.402 4.00928 142.503 4.56787 141.868C5.1307 141.233 5.9305 140.916 6.96729 140.916C7.3016 140.916 7.6359 140.952 7.97021 141.024C8.30452 141.096 8.56689 141.181 8.75732 141.278L8.43359 142.173C8.20085 142.08 7.94694 142.004 7.67188 141.944C7.39681 141.881 7.15348 141.849 6.94189 141.849C5.52848 141.849 4.82178 142.75 4.82178 144.553C4.82178 145.408 4.99316 146.064 5.33594 146.521C5.68294 146.978 6.19499 147.207 6.87207 147.207C7.45182 147.207 8.04639 147.082 8.65576 146.832V147.765C8.19027 148.006 7.60417 148.127 6.89746 148.127ZM15.0034 141.944H12.7437V148H11.6899V141.944H9.45557V141.043H15.0034V141.944ZM20.6592 148L20.4497 147.01H20.3989C20.0519 147.446 19.7049 147.742 19.3579 147.898C19.0151 148.051 18.5856 148.127 18.0693 148.127C17.3796 148.127 16.8379 147.949 16.4443 147.594C16.055 147.238 15.8604 146.733 15.8604 146.077C15.8604 144.672 16.9839 143.935 19.231 143.868L20.4116 143.83V143.398C20.4116 142.852 20.2931 142.45 20.0562 142.192C19.8234 141.93 19.4489 141.798 18.9326 141.798C18.3529 141.798 17.6969 141.976 16.9648 142.332L16.6411 141.525C16.9839 141.339 17.3584 141.193 17.7646 141.087C18.1751 140.982 18.5856 140.929 18.9961 140.929C19.8255 140.929 20.4391 141.113 20.8369 141.481C21.2389 141.849 21.4399 142.439 21.4399 143.252V148H20.6592ZM18.2788 147.257C18.9347 147.257 19.4489 147.077 19.8213 146.718C20.1979 146.358 20.3862 145.854 20.3862 145.207V144.579L19.3325 144.623C18.4946 144.653 17.8895 144.784 17.5171 145.017C17.1489 145.245 16.9648 145.603 16.9648 146.089C16.9648 146.47 17.0791 146.76 17.3076 146.959C17.5404 147.158 17.8641 147.257 18.2788 147.257ZM28.3081 141.944H26.0483V148H24.9946V141.944H22.7603V141.043H28.3081V141.944ZM28.5811 141.043H29.7109L31.2344 145.01C31.5687 145.916 31.776 146.57 31.8564 146.972H31.9072C31.9622 146.756 32.0765 146.388 32.25 145.867C32.4277 145.342 33.0033 143.734 33.9766 141.043H35.1064L32.1167 148.965C31.8205 149.748 31.4735 150.302 31.0757 150.628C30.6821 150.958 30.1976 151.123 29.6221 151.123C29.3005 151.123 28.9831 151.087 28.6699 151.015V150.171C28.9027 150.222 29.1629 150.247 29.4507 150.247C30.1743 150.247 30.6906 149.841 30.9995 149.028L31.3867 148.038L28.5811 141.043ZM39.0166 148.127C38.0094 148.127 37.2287 147.818 36.6743 147.2C36.1242 146.578 35.8491 145.7 35.8491 144.566C35.8491 143.402 36.1284 142.503 36.687 141.868C37.2498 141.233 38.0496 140.916 39.0864 140.916C39.4207 140.916 39.755 140.952 40.0894 141.024C40.4237 141.096 40.686 141.181 40.8765 141.278L40.5527 142.173C40.32 142.08 40.0661 142.004 39.791 141.944C39.516 141.881 39.2726 141.849 39.061 141.849C37.6476 141.849 36.9409 142.75 36.9409 144.553C36.9409 145.408 37.1123 146.064 37.4551 146.521C37.8021 146.978 38.3141 147.207 38.9912 147.207C39.571 147.207 40.1655 147.082 40.7749 146.832V147.765C40.3094 148.006 39.7233 148.127 39.0166 148.127ZM48.4365 144.515C48.4365 145.649 48.1509 146.536 47.5796 147.175C47.0083 147.81 46.2191 148.127 45.2119 148.127C44.5898 148.127 44.0376 147.981 43.5552 147.689C43.0728 147.397 42.7004 146.978 42.438 146.432C42.1756 145.886 42.0444 145.247 42.0444 144.515C42.0444 143.381 42.328 142.499 42.895 141.868C43.4621 141.233 44.2492 140.916 45.2563 140.916C46.2297 140.916 47.002 141.24 47.5732 141.887C48.1488 142.535 48.4365 143.411 48.4365 144.515ZM43.1362 144.515C43.1362 145.404 43.314 146.081 43.6694 146.546C44.0249 147.012 44.5475 147.245 45.2373 147.245C45.9271 147.245 46.4497 147.014 46.8052 146.553C47.1649 146.087 47.3447 145.408 47.3447 144.515C47.3447 143.631 47.1649 142.96 46.8052 142.503C46.4497 142.042 45.9229 141.811 45.2246 141.811C44.5348 141.811 44.0143 142.037 43.6631 142.49C43.3118 142.943 43.1362 143.618 43.1362 144.515ZM53.9019 146.984L54.0986 146.394L54.3716 145.645L56.2568 141.056H57.5962V148H56.6631V142.255L56.5361 142.624L56.168 143.595L54.3716 148H53.4893L51.6929 143.582C51.4686 143.015 51.3141 142.573 51.2295 142.255V148H50.29V141.056H51.5786L53.4004 145.467C53.5824 145.933 53.7495 146.438 53.9019 146.984Z" fill="#193F6A"/>
<path d="M239.132 112H238.053V103.678H235.114V102.72H242.071V103.678H239.132V112ZM246.254 112.127C245.226 112.127 244.414 111.814 243.817 111.188C243.224 110.561 242.928 109.692 242.928 108.579C242.928 107.457 243.203 106.566 243.753 105.906C244.308 105.246 245.05 104.916 245.981 104.916C246.853 104.916 247.543 105.204 248.051 105.779C248.559 106.351 248.812 107.106 248.812 108.045V108.712H244.02C244.041 109.529 244.246 110.149 244.636 110.572C245.029 110.995 245.582 111.207 246.292 111.207C247.042 111.207 247.782 111.05 248.514 110.737V111.676C248.142 111.837 247.788 111.951 247.454 112.019C247.124 112.091 246.724 112.127 246.254 112.127ZM245.969 105.798C245.41 105.798 244.964 105.98 244.629 106.344C244.299 106.708 244.105 107.212 244.045 107.855H247.683C247.683 107.191 247.535 106.683 247.238 106.332C246.942 105.976 246.519 105.798 245.969 105.798ZM253.853 112.127C253.4 112.127 252.985 112.044 252.608 111.879C252.236 111.71 251.923 111.452 251.669 111.105H251.593C251.644 111.511 251.669 111.896 251.669 112.26V115.123H250.615V105.043H251.472L251.618 105.995H251.669C251.94 105.614 252.255 105.339 252.615 105.17C252.974 105.001 253.387 104.916 253.853 104.916C254.775 104.916 255.486 105.231 255.985 105.862C256.489 106.492 256.741 107.377 256.741 108.515C256.741 109.658 256.485 110.546 255.973 111.181C255.465 111.812 254.758 112.127 253.853 112.127ZM253.7 105.811C252.989 105.811 252.475 106.008 252.158 106.401C251.84 106.795 251.677 107.421 251.669 108.28V108.515C251.669 109.493 251.832 110.193 252.158 110.616C252.484 111.035 253.006 111.245 253.726 111.245C254.326 111.245 254.796 111.001 255.135 110.515C255.478 110.028 255.649 109.357 255.649 108.502C255.649 107.635 255.478 106.971 255.135 106.509C254.796 106.044 254.318 105.811 253.7 105.811ZM259.578 105.043V109.455L259.534 110.61L259.515 110.972L263.279 105.043H264.593V112H263.609V107.747L263.628 106.909L263.66 106.084L259.902 112H258.588V105.043H259.578ZM271.518 105.944H269.258V112H268.205V105.944H265.97V105.043H271.518V105.944ZM278.9 108.515C278.9 109.649 278.615 110.536 278.043 111.175C277.472 111.81 276.683 112.127 275.676 112.127C275.054 112.127 274.501 111.981 274.019 111.689C273.537 111.397 273.164 110.978 272.902 110.432C272.639 109.886 272.508 109.247 272.508 108.515C272.508 107.381 272.792 106.499 273.359 105.868C273.926 105.233 274.713 104.916 275.72 104.916C276.694 104.916 277.466 105.24 278.037 105.887C278.613 106.535 278.9 107.411 278.9 108.515ZM273.6 108.515C273.6 109.404 273.778 110.081 274.133 110.546C274.489 111.012 275.011 111.245 275.701 111.245C276.391 111.245 276.914 111.014 277.269 110.553C277.629 110.087 277.809 109.408 277.809 108.515C277.809 107.631 277.629 106.96 277.269 106.503C276.914 106.042 276.387 105.811 275.688 105.811C274.999 105.811 274.478 106.037 274.127 106.49C273.776 106.943 273.6 107.618 273.6 108.515ZM283.991 112.127C283.538 112.127 283.124 112.044 282.747 111.879C282.375 111.71 282.062 111.452 281.808 111.105H281.731C281.782 111.511 281.808 111.896 281.808 112.26V115.123H280.754V105.043H281.611L281.757 105.995H281.808C282.078 105.614 282.394 105.339 282.753 105.17C283.113 105.001 283.526 104.916 283.991 104.916C284.914 104.916 285.625 105.231 286.124 105.862C286.628 106.492 286.879 107.377 286.879 108.515C286.879 109.658 286.623 110.546 286.111 111.181C285.604 111.812 284.897 112.127 283.991 112.127ZM283.839 105.811C283.128 105.811 282.614 106.008 282.296 106.401C281.979 106.795 281.816 107.421 281.808 108.28V108.515C281.808 109.493 281.971 110.193 282.296 110.616C282.622 111.035 283.145 111.245 283.864 111.245C284.465 111.245 284.935 111.001 285.273 110.515C285.616 110.028 285.788 109.357 285.788 108.502C285.788 107.635 285.616 106.971 285.273 106.509C284.935 106.044 284.457 105.811 283.839 105.811ZM289.78 112H288.727V105.043H289.78V112ZM288.638 103.158C288.638 102.917 288.697 102.741 288.815 102.631C288.934 102.517 289.082 102.459 289.26 102.459C289.429 102.459 289.575 102.517 289.698 102.631C289.82 102.745 289.882 102.921 289.882 103.158C289.882 103.395 289.82 103.572 289.698 103.691C289.575 103.805 289.429 103.862 289.26 103.862C289.082 103.862 288.934 103.805 288.815 103.691C288.697 103.572 288.638 103.395 288.638 103.158ZM293.068 112H292.015V105.043H293.068V112ZM290.771 103.158C290.771 102.938 290.826 102.779 290.936 102.682C291.05 102.584 291.185 102.536 291.342 102.536C291.503 102.536 291.64 102.584 291.754 102.682C291.873 102.779 291.932 102.938 291.932 103.158C291.932 103.369 291.873 103.528 291.754 103.634C291.64 103.735 291.503 103.786 291.342 103.786C291.185 103.786 291.05 103.735 290.936 103.634C290.826 103.528 290.771 103.369 290.771 103.158ZM293.189 103.158C293.189 102.938 293.244 102.779 293.354 102.682C293.468 102.584 293.604 102.536 293.76 102.536C293.917 102.536 294.052 102.584 294.167 102.682C294.285 102.779 294.344 102.938 294.344 103.158C294.344 103.369 294.285 103.528 294.167 103.634C294.052 103.735 293.917 103.786 293.76 103.786C293.604 103.786 293.468 103.735 293.354 103.634C293.244 103.528 293.189 103.369 293.189 103.158ZM240.808 123.944H238.548V130H237.495V123.944H235.26V123.043H240.808V123.944ZM245.125 130.127C244.096 130.127 243.284 129.814 242.687 129.188C242.095 128.561 241.798 127.692 241.798 126.579C241.798 125.457 242.073 124.566 242.624 123.906C243.178 123.246 243.921 122.916 244.852 122.916C245.723 122.916 246.413 123.204 246.921 123.779C247.429 124.351 247.683 125.106 247.683 126.045V126.712H242.89C242.911 127.529 243.117 128.149 243.506 128.572C243.899 128.995 244.452 129.207 245.163 129.207C245.912 129.207 246.652 129.05 247.384 128.737V129.676C247.012 129.837 246.659 129.951 246.324 130.019C245.994 130.091 245.594 130.127 245.125 130.127ZM244.839 123.798C244.28 123.798 243.834 123.98 243.5 124.344C243.169 124.708 242.975 125.212 242.916 125.855H246.553C246.553 125.191 246.405 124.683 246.108 124.332C245.812 123.976 245.389 123.798 244.839 123.798ZM252.723 130.127C252.27 130.127 251.855 130.044 251.479 129.879C251.106 129.71 250.793 129.452 250.539 129.105H250.463C250.514 129.511 250.539 129.896 250.539 130.26V133.123H249.485V123.043H250.342L250.488 123.995H250.539C250.81 123.614 251.125 123.339 251.485 123.17C251.845 123.001 252.257 122.916 252.723 122.916C253.645 122.916 254.356 123.231 254.855 123.862C255.359 124.492 255.611 125.377 255.611 126.515C255.611 127.658 255.355 128.546 254.843 129.181C254.335 129.812 253.628 130.127 252.723 130.127ZM252.57 123.811C251.859 123.811 251.345 124.008 251.028 124.401C250.71 124.795 250.548 125.421 250.539 126.28V126.515C250.539 127.493 250.702 128.193 251.028 128.616C251.354 129.035 251.876 129.245 252.596 129.245C253.197 129.245 253.666 129.001 254.005 128.515C254.348 128.028 254.519 127.357 254.519 126.502C254.519 125.635 254.348 124.971 254.005 124.509C253.666 124.044 253.188 123.811 252.57 123.811ZM258.448 123.043V127.455L258.404 128.61L258.385 128.972L262.149 123.043H263.463V130H262.479V125.747L262.498 124.909L262.53 124.084L258.772 130H257.458V123.043H258.448ZM270.388 123.944H268.128V130H267.075V123.944H264.84V123.043H270.388V123.944ZM277.771 126.515C277.771 127.649 277.485 128.536 276.914 129.175C276.342 129.81 275.553 130.127 274.546 130.127C273.924 130.127 273.372 129.981 272.889 129.689C272.407 129.397 272.034 128.978 271.772 128.432C271.51 127.886 271.378 127.247 271.378 126.515C271.378 125.381 271.662 124.499 272.229 123.868C272.796 123.233 273.583 122.916 274.59 122.916C275.564 122.916 276.336 123.24 276.907 123.887C277.483 124.535 277.771 125.411 277.771 126.515ZM272.47 126.515C272.47 127.404 272.648 128.081 273.003 128.546C273.359 129.012 273.882 129.245 274.571 129.245C275.261 129.245 275.784 129.014 276.139 128.553C276.499 128.087 276.679 127.408 276.679 126.515C276.679 125.631 276.499 124.96 276.139 124.503C275.784 124.042 275.257 123.811 274.559 123.811C273.869 123.811 273.348 124.037 272.997 124.49C272.646 124.943 272.47 125.618 272.47 126.515ZM282.861 130.127C282.409 130.127 281.994 130.044 281.617 129.879C281.245 129.71 280.932 129.452 280.678 129.105H280.602C280.652 129.511 280.678 129.896 280.678 130.26V133.123H279.624V123.043H280.481L280.627 123.995H280.678C280.949 123.614 281.264 123.339 281.624 123.17C281.983 123.001 282.396 122.916 282.861 122.916C283.784 122.916 284.495 123.231 284.994 123.862C285.498 124.492 285.75 125.377 285.75 126.515C285.75 127.658 285.493 128.546 284.981 129.181C284.474 129.812 283.767 130.127 282.861 130.127ZM282.709 123.811C281.998 123.811 281.484 124.008 281.167 124.401C280.849 124.795 280.686 125.421 280.678 126.28V126.515C280.678 127.493 280.841 128.193 281.167 128.616C281.492 129.035 282.015 129.245 282.734 129.245C283.335 129.245 283.805 129.001 284.144 128.515C284.486 128.028 284.658 127.357 284.658 126.502C284.658 125.635 284.486 124.971 284.144 124.509C283.805 124.044 283.327 123.811 282.709 123.811ZM288.65 130H287.597V123.043H288.65V130ZM287.508 121.158C287.508 120.917 287.567 120.741 287.686 120.631C287.804 120.517 287.952 120.459 288.13 120.459C288.299 120.459 288.445 120.517 288.568 120.631C288.691 120.745 288.752 120.921 288.752 121.158C288.752 121.395 288.691 121.572 288.568 121.691C288.445 121.805 288.299 121.862 288.13 121.862C287.952 121.862 287.804 121.805 287.686 121.691C287.567 121.572 287.508 121.395 287.508 121.158ZM295.163 130L294.954 129.01H294.903C294.556 129.446 294.209 129.742 293.862 129.898C293.519 130.051 293.09 130.127 292.573 130.127C291.883 130.127 291.342 129.949 290.948 129.594C290.559 129.238 290.364 128.733 290.364 128.077C290.364 126.672 291.488 125.935 293.735 125.868L294.916 125.83V125.398C294.916 124.852 294.797 124.45 294.56 124.192C294.327 123.93 293.953 123.798 293.437 123.798C292.857 123.798 292.201 123.976 291.469 124.332L291.145 123.525C291.488 123.339 291.862 123.193 292.269 123.087C292.679 122.982 293.09 122.929 293.5 122.929C294.329 122.929 294.943 123.113 295.341 123.481C295.743 123.849 295.944 124.439 295.944 125.252V130H295.163ZM292.783 129.257C293.439 129.257 293.953 129.077 294.325 128.718C294.702 128.358 294.89 127.854 294.89 127.207V126.579L293.836 126.623C292.999 126.653 292.393 126.784 292.021 127.017C291.653 127.245 291.469 127.603 291.469 128.089C291.469 128.47 291.583 128.76 291.812 128.959C292.044 129.158 292.368 129.257 292.783 129.257ZM303.307 130H302.241V123.944H300.152C300.038 125.451 299.879 126.646 299.676 127.531C299.473 128.415 299.209 129.063 298.883 129.473C298.561 129.884 298.151 130.089 297.651 130.089C297.423 130.089 297.241 130.063 297.105 130.013V129.232C297.199 129.257 297.304 129.27 297.423 129.27C297.91 129.27 298.297 128.756 298.584 127.728C298.872 126.699 299.09 125.138 299.238 123.043H303.307V130ZM306.602 125.918H308.747C310.524 125.918 311.413 126.572 311.413 127.88C311.413 128.565 311.18 129.09 310.715 129.454C310.254 129.818 309.576 130 308.684 130H305.548V123.043H306.602V125.918ZM306.602 126.826V129.118H308.633C309.191 129.118 309.619 129.02 309.915 128.826C310.211 128.631 310.359 128.337 310.359 127.943C310.359 127.558 310.222 127.277 309.947 127.099C309.676 126.917 309.227 126.826 308.601 126.826H306.602ZM314.295 123.043V125.957H318.192V123.043H319.246V130H318.192V126.864H314.295V130H313.241V123.043H314.295ZM322.471 123.043V127.455L322.426 128.61L322.407 128.972L326.171 123.043H327.485V130H326.501V125.747L326.521 124.909L326.552 124.084L322.794 130H321.48V123.043H322.471ZM331.396 126.439L328.977 123.043H330.177L332.011 125.709L333.839 123.043H335.026L332.608 126.439L335.153 130H333.96L332.011 127.182L330.043 130H328.85L331.396 126.439ZM240.307 141.944H237.171V148H236.117V141.043H240.307V141.944ZM244.928 148.127C244.475 148.127 244.06 148.044 243.684 147.879C243.311 147.71 242.998 147.452 242.744 147.105H242.668C242.719 147.511 242.744 147.896 242.744 148.26V151.123H241.69V141.043H242.547L242.693 141.995H242.744C243.015 141.614 243.33 141.339 243.69 141.17C244.05 141.001 244.462 140.916 244.928 140.916C245.85 140.916 246.561 141.231 247.061 141.862C247.564 142.492 247.816 143.377 247.816 144.515C247.816 145.658 247.56 146.546 247.048 147.181C246.54 147.812 245.833 148.127 244.928 148.127ZM244.775 141.811C244.064 141.811 243.55 142.008 243.233 142.401C242.916 142.795 242.753 143.421 242.744 144.28V144.515C242.744 145.493 242.907 146.193 243.233 146.616C243.559 147.035 244.081 147.245 244.801 147.245C245.402 147.245 245.871 147.001 246.21 146.515C246.553 146.028 246.724 145.357 246.724 144.502C246.724 143.635 246.553 142.971 246.21 142.509C245.871 142.044 245.393 141.811 244.775 141.811ZM255.668 144.515C255.668 145.649 255.382 146.536 254.811 147.175C254.24 147.81 253.451 148.127 252.443 148.127C251.821 148.127 251.269 147.981 250.787 147.689C250.304 147.397 249.932 146.978 249.669 146.432C249.407 145.886 249.276 145.247 249.276 144.515C249.276 143.381 249.559 142.499 250.126 141.868C250.694 141.233 251.481 140.916 252.488 140.916C253.461 140.916 254.233 141.24 254.805 141.887C255.38 142.535 255.668 143.411 255.668 144.515ZM250.368 144.515C250.368 145.404 250.545 146.081 250.901 146.546C251.256 147.012 251.779 147.245 252.469 147.245C253.159 147.245 253.681 147.014 254.037 146.553C254.396 146.087 254.576 145.408 254.576 144.515C254.576 143.631 254.396 142.96 254.037 142.503C253.681 142.042 253.154 141.811 252.456 141.811C251.766 141.811 251.246 142.037 250.895 142.49C250.543 142.943 250.368 143.618 250.368 144.515ZM261.133 146.984L261.33 146.394L261.603 145.645L263.488 141.056H264.828V148H263.895V142.255L263.768 142.624L263.399 143.595L261.603 148H260.721L258.924 143.582C258.7 143.015 258.546 142.573 258.461 142.255V148H257.521V141.056H258.81L260.632 145.467C260.814 145.933 260.981 146.438 261.133 146.984ZM271.359 148L271.15 147.01H271.099C270.752 147.446 270.405 147.742 270.058 147.898C269.715 148.051 269.286 148.127 268.77 148.127C268.08 148.127 267.538 147.949 267.145 147.594C266.755 147.238 266.561 146.733 266.561 146.077C266.561 144.672 267.684 143.935 269.931 143.868L271.112 143.83V143.398C271.112 142.852 270.993 142.45 270.756 142.192C270.524 141.93 270.149 141.798 269.633 141.798C269.053 141.798 268.397 141.976 267.665 142.332L267.341 141.525C267.684 141.339 268.059 141.193 268.465 141.087C268.875 140.982 269.286 140.929 269.696 140.929C270.526 140.929 271.139 141.113 271.537 141.481C271.939 141.849 272.14 142.439 272.14 143.252V148H271.359ZM268.979 147.257C269.635 147.257 270.149 147.077 270.521 146.718C270.898 146.358 271.086 145.854 271.086 145.207V144.579L270.033 144.623C269.195 144.653 268.59 144.784 268.217 145.017C267.849 145.245 267.665 145.603 267.665 146.089C267.665 146.47 267.779 146.76 268.008 146.959C268.241 147.158 268.564 147.257 268.979 147.257ZM280.36 150.406H279.338V148H274.476V150.406H273.46V147.092H274.006C274.573 146.322 275.018 145.419 275.339 144.382C275.661 143.345 275.828 142.232 275.841 141.043H279.364V147.092H280.36V150.406ZM278.348 147.092V141.875H276.787C276.732 142.814 276.55 143.766 276.241 144.731C275.936 145.692 275.555 146.479 275.098 147.092H278.348Z" fill="#193F6A"/>
<path d="M358.322 112H357.243V107.633H352.355V112H351.276V102.72H352.355V106.668H357.243V102.72H358.322V112ZM364.993 112L364.784 111.01H364.733C364.386 111.446 364.039 111.742 363.692 111.898C363.349 112.051 362.92 112.127 362.403 112.127C361.714 112.127 361.172 111.949 360.778 111.594C360.389 111.238 360.194 110.733 360.194 110.077C360.194 108.672 361.318 107.935 363.565 107.868L364.746 107.83V107.398C364.746 106.852 364.627 106.45 364.39 106.192C364.157 105.93 363.783 105.798 363.267 105.798C362.687 105.798 362.031 105.976 361.299 106.332L360.975 105.525C361.318 105.339 361.692 105.193 362.099 105.087C362.509 104.982 362.92 104.929 363.33 104.929C364.16 104.929 364.773 105.113 365.171 105.481C365.573 105.849 365.774 106.439 365.774 107.252V112H364.993ZM362.613 111.257C363.269 111.257 363.783 111.077 364.155 110.718C364.532 110.358 364.72 109.854 364.72 109.207V108.579L363.667 108.623C362.829 108.653 362.223 108.784 361.851 109.017C361.483 109.245 361.299 109.603 361.299 110.089C361.299 110.47 361.413 110.76 361.642 110.959C361.874 111.158 362.198 111.257 362.613 111.257ZM370.731 112.127C369.724 112.127 368.944 111.818 368.389 111.2C367.839 110.578 367.564 109.7 367.564 108.566C367.564 107.402 367.843 106.503 368.402 105.868C368.965 105.233 369.764 104.916 370.801 104.916C371.136 104.916 371.47 104.952 371.804 105.024C372.139 105.096 372.401 105.181 372.591 105.278L372.268 106.173C372.035 106.08 371.781 106.004 371.506 105.944C371.231 105.881 370.987 105.849 370.776 105.849C369.362 105.849 368.656 106.75 368.656 108.553C368.656 109.408 368.827 110.064 369.17 110.521C369.517 110.978 370.029 111.207 370.706 111.207C371.286 111.207 371.88 111.082 372.49 110.832V111.765C372.024 112.006 371.438 112.127 370.731 112.127ZM377.085 112.127C376.057 112.127 375.245 111.814 374.648 111.188C374.056 110.561 373.759 109.692 373.759 108.579C373.759 107.457 374.034 106.566 374.584 105.906C375.139 105.246 375.882 104.916 376.812 104.916C377.684 104.916 378.374 105.204 378.882 105.779C379.39 106.351 379.644 107.106 379.644 108.045V108.712H374.851C374.872 109.529 375.077 110.149 375.467 110.572C375.86 110.995 376.413 111.207 377.124 111.207C377.873 111.207 378.613 111.05 379.345 110.737V111.676C378.973 111.837 378.619 111.951 378.285 112.019C377.955 112.091 377.555 112.127 377.085 112.127ZM376.8 105.798C376.241 105.798 375.795 105.98 375.46 106.344C375.13 106.708 374.936 107.212 374.876 107.855H378.514C378.514 107.191 378.366 106.683 378.069 106.332C377.773 105.976 377.35 105.798 376.8 105.798ZM386.632 112H385.566V105.944H383.478C383.363 107.451 383.205 108.646 383.001 109.531C382.798 110.415 382.534 111.063 382.208 111.473C381.886 111.884 381.476 112.089 380.977 112.089C380.748 112.089 380.566 112.063 380.431 112.013V111.232C380.524 111.257 380.63 111.27 380.748 111.27C381.235 111.27 381.622 110.756 381.91 109.728C382.197 108.699 382.415 107.138 382.563 105.043H386.632V112ZM391.812 112.127C390.784 112.127 389.971 111.814 389.375 111.188C388.782 110.561 388.486 109.692 388.486 108.579C388.486 107.457 388.761 106.566 389.311 105.906C389.865 105.246 390.608 104.916 391.539 104.916C392.411 104.916 393.101 105.204 393.608 105.779C394.116 106.351 394.37 107.106 394.37 108.045V108.712H389.578C389.599 109.529 389.804 110.149 390.193 110.572C390.587 110.995 391.139 111.207 391.85 111.207C392.599 111.207 393.34 111.05 394.072 110.737V111.676C393.699 111.837 393.346 111.951 393.012 112.019C392.682 112.091 392.282 112.127 391.812 112.127ZM391.526 105.798C390.968 105.798 390.521 105.98 390.187 106.344C389.857 106.708 389.662 107.212 389.603 107.855H393.24C393.24 107.191 393.092 106.683 392.796 106.332C392.5 105.976 392.076 105.798 391.526 105.798ZM397.227 105.043V107.957H401.124V105.043H402.178V112H401.124V108.864H397.227V112H396.173V105.043H397.227ZM405.466 105.043V107.957H409.363V105.043H410.417V112H409.363V108.864H405.466V112H404.412V105.043H405.466ZM413.705 112H412.651V105.043H413.705V112ZM412.562 103.158C412.562 102.917 412.622 102.741 412.74 102.631C412.859 102.517 413.007 102.459 413.185 102.459C413.354 102.459 413.5 102.517 413.623 102.631C413.745 102.745 413.807 102.921 413.807 103.158C413.807 103.395 413.745 103.572 413.623 103.691C413.5 103.805 413.354 103.862 413.185 103.862C413.007 103.862 412.859 103.805 412.74 103.691C412.622 103.572 412.562 103.395 412.562 103.158ZM352.171 130H351.117V123.043H356.957V130H355.891V123.957H352.171V130ZM358.087 123.043H359.217L360.74 127.01C361.075 127.916 361.282 128.57 361.362 128.972H361.413C361.468 128.756 361.582 128.388 361.756 127.867C361.934 127.342 362.509 125.734 363.482 123.043H364.612L361.623 130.965C361.326 131.748 360.979 132.302 360.582 132.628C360.188 132.958 359.703 133.123 359.128 133.123C358.806 133.123 358.489 133.087 358.176 133.015V132.171C358.409 132.222 358.669 132.247 358.957 132.247C359.68 132.247 360.196 131.841 360.505 131.028L360.893 130.038L358.087 123.043ZM366.796 123.043V125.957H370.693V123.043H371.747V130H370.693V126.864H366.796V130H365.742V123.043H366.796ZM378.038 123.043H379.193L376.19 126.401L379.44 130H378.209L375.035 126.477V130H373.981V123.043H375.035V126.426L378.038 123.043ZM385.426 123.944H383.167V130H382.113V123.944H379.878V123.043H385.426V123.944ZM387.794 123.043V127.455L387.75 128.61L387.73 128.972L391.495 123.043H392.809V130H391.825V125.747L391.844 124.909L391.875 124.084L388.118 130H386.804V123.043H387.794Z" fill="#193F6A"/>
<path d="M459.16 105.424C459.16 106.363 458.839 107.087 458.195 107.595C457.556 108.098 456.64 108.35 455.447 108.35H454.355V112H453.276V102.72H455.682C458.001 102.72 459.16 103.621 459.16 105.424ZM454.355 107.423H455.326C456.283 107.423 456.974 107.269 457.402 106.96C457.829 106.651 458.043 106.156 458.043 105.475C458.043 104.861 457.842 104.404 457.44 104.104C457.038 103.803 456.412 103.653 455.561 103.653H454.355V107.423ZM465.229 112L465.019 111.01H464.968C464.621 111.446 464.274 111.742 463.927 111.898C463.584 112.051 463.155 112.127 462.639 112.127C461.949 112.127 461.407 111.949 461.014 111.594C460.624 111.238 460.43 110.733 460.43 110.077C460.43 108.672 461.553 107.935 463.8 107.868L464.981 107.83V107.398C464.981 106.852 464.862 106.45 464.625 106.192C464.393 105.93 464.018 105.798 463.502 105.798C462.922 105.798 462.266 105.976 461.534 106.332L461.21 105.525C461.553 105.339 461.928 105.193 462.334 105.087C462.744 104.982 463.155 104.929 463.565 104.929C464.395 104.929 465.008 105.113 465.406 105.481C465.808 105.849 466.009 106.439 466.009 107.252V112H465.229ZM462.848 111.257C463.504 111.257 464.018 111.077 464.391 110.718C464.767 110.358 464.956 109.854 464.956 109.207V108.579L463.902 108.623C463.064 108.653 462.459 108.784 462.086 109.017C461.718 109.245 461.534 109.603 461.534 110.089C461.534 110.47 461.648 110.76 461.877 110.959C462.11 111.158 462.433 111.257 462.848 111.257ZM469.177 105.043V109.455L469.132 110.61L469.113 110.972L472.877 105.043H474.191V112H473.208V107.747L473.227 106.909L473.258 106.084L469.5 112H468.187V105.043H469.177ZM471.164 104.123C470.381 104.123 469.809 103.972 469.45 103.672C469.09 103.367 468.889 102.868 468.847 102.174H469.837C469.875 102.614 469.989 102.921 470.18 103.094C470.374 103.268 470.711 103.354 471.189 103.354C471.625 103.354 471.946 103.261 472.154 103.075C472.365 102.889 472.494 102.589 472.541 102.174H473.538C473.487 102.842 473.273 103.335 472.896 103.653C472.52 103.966 471.942 104.123 471.164 104.123ZM482.431 108.515C482.431 109.649 482.145 110.536 481.574 111.175C481.002 111.81 480.213 112.127 479.206 112.127C478.584 112.127 478.032 111.981 477.549 111.689C477.067 111.397 476.694 110.978 476.432 110.432C476.17 109.886 476.039 109.247 476.039 108.515C476.039 107.381 476.322 106.499 476.889 105.868C477.456 105.233 478.243 104.916 479.25 104.916C480.224 104.916 480.996 105.24 481.567 105.887C482.143 106.535 482.431 107.411 482.431 108.515ZM477.13 108.515C477.13 109.404 477.308 110.081 477.664 110.546C478.019 111.012 478.542 111.245 479.231 111.245C479.921 111.245 480.444 111.014 480.799 110.553C481.159 110.087 481.339 109.408 481.339 108.515C481.339 107.631 481.159 106.96 480.799 106.503C480.444 106.042 479.917 105.811 479.219 105.811C478.529 105.811 478.008 106.037 477.657 106.49C477.306 106.943 477.13 107.618 477.13 108.515ZM485.338 105.043V107.957H489.235V105.043H490.289V112H489.235V108.864H485.338V112H484.284V105.043H485.338ZM493.514 105.043V109.455L493.469 110.61L493.45 110.972L497.214 105.043H498.528V112H497.544V107.747L497.563 106.909L497.595 106.084L493.837 112H492.523V105.043H493.514ZM452.013 123.043H453.143L454.666 127.01C455 127.916 455.208 128.57 455.288 128.972H455.339C455.394 128.756 455.508 128.388 455.682 127.867C455.859 127.342 456.435 125.734 457.408 123.043H458.538L455.548 130.965C455.252 131.748 454.905 132.302 454.507 132.628C454.114 132.958 453.629 133.123 453.054 133.123C452.732 133.123 452.415 133.087 452.102 133.015V132.171C452.334 132.222 452.595 132.247 452.882 132.247C453.606 132.247 454.122 131.841 454.431 131.028L454.818 130.038L452.013 123.043ZM466.657 128.984L466.854 128.394L467.126 127.645L469.012 123.056H470.351V130H469.418V124.255L469.291 124.624L468.923 125.595L467.126 130H466.244L464.448 125.582C464.223 125.015 464.069 124.573 463.984 124.255V130H463.045V123.056H464.333L466.155 127.467C466.337 127.933 466.504 128.438 466.657 128.984ZM473.658 130H472.604V123.043H473.658V130ZM472.516 121.158C472.516 120.917 472.575 120.741 472.693 120.631C472.812 120.517 472.96 120.459 473.138 120.459C473.307 120.459 473.453 120.517 473.576 120.631C473.698 120.745 473.76 120.921 473.76 121.158C473.76 121.395 473.698 121.572 473.576 121.691C473.453 121.805 473.307 121.862 473.138 121.862C472.96 121.862 472.812 121.805 472.693 121.691C472.575 121.572 472.516 121.395 472.516 121.158ZM478.673 130.127C477.666 130.127 476.885 129.818 476.331 129.2C475.78 128.578 475.505 127.7 475.505 126.566C475.505 125.402 475.785 124.503 476.343 123.868C476.906 123.233 477.706 122.916 478.743 122.916C479.077 122.916 479.411 122.952 479.746 123.024C480.08 123.096 480.342 123.181 480.533 123.278L480.209 124.173C479.976 124.08 479.722 124.004 479.447 123.944C479.172 123.881 478.929 123.849 478.717 123.849C477.304 123.849 476.597 124.75 476.597 126.553C476.597 127.408 476.769 128.064 477.111 128.521C477.458 128.978 477.97 129.207 478.647 129.207C479.227 129.207 479.822 129.082 480.431 128.832V129.765C479.966 130.006 479.38 130.127 478.673 130.127ZM486.779 123.944H484.519V130H483.465V123.944H481.231V123.043H486.779V123.944ZM492.435 130L492.225 129.01H492.174C491.827 129.446 491.48 129.742 491.133 129.898C490.791 130.051 490.361 130.127 489.845 130.127C489.155 130.127 488.613 129.949 488.22 129.594C487.83 129.238 487.636 128.733 487.636 128.077C487.636 126.672 488.759 125.935 491.006 125.868L492.187 125.83V125.398C492.187 124.852 492.069 124.45 491.832 124.192C491.599 123.93 491.224 123.798 490.708 123.798C490.128 123.798 489.472 123.976 488.74 124.332L488.417 123.525C488.759 123.339 489.134 123.193 489.54 123.087C489.951 122.982 490.361 122.929 490.771 122.929C491.601 122.929 492.215 123.113 492.612 123.481C493.014 123.849 493.215 124.439 493.215 125.252V130H492.435ZM490.054 129.257C490.71 129.257 491.224 129.077 491.597 128.718C491.973 128.358 492.162 127.854 492.162 127.207V126.579L491.108 126.623C490.27 126.653 489.665 126.784 489.292 127.017C488.924 127.245 488.74 127.603 488.74 128.089C488.74 128.47 488.854 128.76 489.083 128.959C489.316 129.158 489.639 129.257 490.054 129.257ZM497.068 126.439L494.65 123.043H495.85L497.684 125.709L499.512 123.043H500.699L498.281 126.439L500.826 130H499.633L497.684 127.182L495.716 130H494.523L497.068 126.439Z" fill="#193F6A"/>
<path d="M552.25 103.551C551.23 103.551 550.424 103.892 549.831 104.573C549.243 105.25 548.949 106.179 548.949 107.36C548.949 108.574 549.232 109.514 549.799 110.178C550.371 110.838 551.183 111.168 552.237 111.168C552.884 111.168 553.623 111.052 554.452 110.819V111.765C553.809 112.006 553.015 112.127 552.072 112.127C550.705 112.127 549.649 111.712 548.904 110.883C548.164 110.053 547.793 108.875 547.793 107.347C547.793 106.391 547.971 105.553 548.327 104.833C548.686 104.114 549.203 103.56 549.875 103.17C550.553 102.781 551.348 102.586 552.262 102.586C553.236 102.586 554.086 102.764 554.814 103.12L554.357 104.046C553.654 103.716 552.952 103.551 552.25 103.551ZM557.309 105.043V109.455L557.264 110.61L557.245 110.972L561.009 105.043H562.323V112H561.339V107.747L561.358 106.909L561.39 106.084L557.632 112H556.318V105.043H557.309ZM567.338 112.127C566.331 112.127 565.55 111.818 564.996 111.2C564.445 110.578 564.17 109.7 564.17 108.566C564.17 107.402 564.45 106.503 565.008 105.868C565.571 105.233 566.371 104.916 567.408 104.916C567.742 104.916 568.076 104.952 568.411 105.024C568.745 105.096 569.007 105.181 569.198 105.278L568.874 106.173C568.641 106.08 568.387 106.004 568.112 105.944C567.837 105.881 567.594 105.849 567.382 105.849C565.969 105.849 565.262 106.75 565.262 108.553C565.262 109.408 565.434 110.064 565.776 110.521C566.123 110.978 566.635 111.207 567.312 111.207C567.892 111.207 568.487 111.082 569.096 110.832V111.765C568.631 112.006 568.045 112.127 567.338 112.127ZM575.444 105.944H573.184V112H572.13V105.944H569.896V105.043H575.444V105.944ZM579.76 112.127C578.732 112.127 577.919 111.814 577.323 111.188C576.73 110.561 576.434 109.692 576.434 108.579C576.434 107.457 576.709 106.566 577.259 105.906C577.814 105.246 578.556 104.916 579.487 104.916C580.359 104.916 581.049 105.204 581.557 105.779C582.064 106.351 582.318 107.106 582.318 108.045V108.712H577.526C577.547 109.529 577.752 110.149 578.142 110.572C578.535 110.995 579.087 111.207 579.798 111.207C580.547 111.207 581.288 111.05 582.02 110.737V111.676C581.648 111.837 581.294 111.951 580.96 112.019C580.63 112.091 580.23 112.127 579.76 112.127ZM579.475 105.798C578.916 105.798 578.47 105.98 578.135 106.344C577.805 106.708 577.611 107.212 577.551 107.855H581.188C581.188 107.191 581.04 106.683 580.744 106.332C580.448 105.976 580.025 105.798 579.475 105.798ZM587.733 110.984L587.93 110.394L588.203 109.645L590.088 105.056H591.427V112H590.494V106.255L590.367 106.624L589.999 107.595L588.203 112H587.32L585.524 107.582C585.3 107.015 585.145 106.573 585.061 106.255V112H584.121V105.056H585.41L587.231 109.467C587.413 109.933 587.581 110.438 587.733 110.984ZM594.734 105.043V107.957H598.632V105.043H599.686V112H598.632V108.864H594.734V112H593.681V105.043H594.734ZM602.91 105.043V109.455L602.866 110.61L602.847 110.972L606.611 105.043H607.925V112H606.941V107.747L606.96 106.909L606.992 106.084L603.234 112H601.92V105.043H602.91ZM611.149 105.043V109.455L611.105 110.61L611.086 110.972L614.85 105.043H616.164V112H615.18V107.747L615.199 106.909L615.231 106.084L611.473 112H610.159V105.043H611.149ZM613.136 104.123C612.353 104.123 611.782 103.972 611.422 103.672C611.063 103.367 610.862 102.868 610.819 102.174H611.81C611.848 102.614 611.962 102.921 612.152 103.094C612.347 103.268 612.683 103.354 613.162 103.354C613.597 103.354 613.919 103.261 614.126 103.075C614.338 102.889 614.467 102.589 614.514 102.174H615.51C615.459 102.842 615.246 103.335 614.869 103.653C614.493 103.966 613.915 104.123 613.136 104.123ZM622.829 105.043V107.957H626.727V105.043H627.78V112H626.727V108.864H622.829V112H621.775V105.043H622.829ZM636.02 108.515C636.02 109.649 635.734 110.536 635.163 111.175C634.591 111.81 633.802 112.127 632.795 112.127C632.173 112.127 631.621 111.981 631.138 111.689C630.656 111.397 630.283 110.978 630.021 110.432C629.759 109.886 629.627 109.247 629.627 108.515C629.627 107.381 629.911 106.499 630.478 105.868C631.045 105.233 631.832 104.916 632.839 104.916C633.813 104.916 634.585 105.24 635.156 105.887C635.732 106.535 636.02 107.411 636.02 108.515ZM630.719 108.515C630.719 109.404 630.897 110.081 631.252 110.546C631.608 111.012 632.131 111.245 632.82 111.245C633.51 111.245 634.033 111.014 634.388 110.553C634.748 110.087 634.928 109.408 634.928 108.515C634.928 107.631 634.748 106.96 634.388 106.503C634.033 106.042 633.506 105.811 632.808 105.811C632.118 105.811 631.597 106.037 631.246 106.49C630.895 106.943 630.719 107.618 630.719 108.515ZM641.485 110.984L641.682 110.394L641.955 109.645L643.84 105.056H645.179V112H644.246V106.255L644.119 106.624L643.751 107.595L641.955 112H641.072L639.276 107.582C639.052 107.015 638.897 106.573 638.812 106.255V112H637.873V105.056H639.162L640.983 109.467C641.165 109.933 641.333 110.438 641.485 110.984ZM650.372 112.127C649.343 112.127 648.531 111.814 647.934 111.188C647.342 110.561 647.045 109.692 647.045 108.579C647.045 107.457 647.32 106.566 647.871 105.906C648.425 105.246 649.168 104.916 650.099 104.916C650.97 104.916 651.66 105.204 652.168 105.779C652.676 106.351 652.93 107.106 652.93 108.045V108.712H648.137C648.158 109.529 648.364 110.149 648.753 110.572C649.146 110.995 649.699 111.207 650.41 111.207C651.159 111.207 651.899 111.05 652.631 110.737V111.676C652.259 111.837 651.906 111.951 651.571 112.019C651.241 112.091 650.841 112.127 650.372 112.127ZM650.086 105.798C649.527 105.798 649.081 105.98 648.747 106.344C648.417 106.708 648.222 107.212 648.163 107.855H651.8C651.8 107.191 651.652 106.683 651.355 106.332C651.059 105.976 650.636 105.798 650.086 105.798ZM657.97 112.127C657.517 112.127 657.102 112.044 656.726 111.879C656.353 111.71 656.04 111.452 655.786 111.105H655.71C655.761 111.511 655.786 111.896 655.786 112.26V115.123H654.732V105.043H655.589L655.735 105.995H655.786C656.057 105.614 656.372 105.339 656.732 105.17C657.092 105.001 657.504 104.916 657.97 104.916C658.892 104.916 659.603 105.231 660.103 105.862C660.606 106.492 660.858 107.377 660.858 108.515C660.858 109.658 660.602 110.546 660.09 111.181C659.582 111.812 658.875 112.127 657.97 112.127ZM657.817 105.811C657.106 105.811 656.592 106.008 656.275 106.401C655.958 106.795 655.795 107.421 655.786 108.28V108.515C655.786 109.493 655.949 110.193 656.275 110.616C656.601 111.035 657.123 111.245 657.843 111.245C658.444 111.245 658.913 111.001 659.252 110.515C659.595 110.028 659.766 109.357 659.766 108.502C659.766 107.635 659.595 106.971 659.252 106.509C658.913 106.044 658.435 105.811 657.817 105.811Z" fill="#193F6A"/>
<path d="M164.16 105.424C164.16 106.363 163.839 107.087 163.195 107.595C162.556 108.098 161.64 108.35 160.447 108.35H159.355V112H158.276V102.72H160.682C163.001 102.72 164.16 103.621 164.16 105.424ZM159.355 107.423H160.326C161.283 107.423 161.974 107.269 162.402 106.96C162.829 106.651 163.043 106.156 163.043 105.475C163.043 104.861 162.842 104.404 162.44 104.104C162.038 103.803 161.412 103.653 160.561 103.653H159.355V107.423ZM170.229 112L170.019 111.01H169.968C169.621 111.446 169.274 111.742 168.927 111.898C168.584 112.051 168.155 112.127 167.639 112.127C166.949 112.127 166.407 111.949 166.014 111.594C165.624 111.238 165.43 110.733 165.43 110.077C165.43 108.672 166.553 107.935 168.8 107.868L169.981 107.83V107.398C169.981 106.852 169.862 106.45 169.625 106.192C169.393 105.93 169.018 105.798 168.502 105.798C167.922 105.798 167.266 105.976 166.534 106.332L166.21 105.525C166.553 105.339 166.928 105.193 167.334 105.087C167.744 104.982 168.155 104.929 168.565 104.929C169.395 104.929 170.008 105.113 170.406 105.481C170.808 105.849 171.009 106.439 171.009 107.252V112H170.229ZM167.848 111.257C168.504 111.257 169.018 111.077 169.391 110.718C169.767 110.358 169.956 109.854 169.956 109.207V108.579L168.902 108.623C168.064 108.653 167.459 108.784 167.086 109.017C166.718 109.245 166.534 109.603 166.534 110.089C166.534 110.47 166.648 110.76 166.877 110.959C167.11 111.158 167.433 111.257 167.848 111.257ZM174.177 105.043V109.455L174.132 110.61L174.113 110.972L177.877 105.043H179.191V112H178.208V107.747L178.227 106.909L178.258 106.084L174.5 112H173.187V105.043H174.177ZM176.164 104.123C175.381 104.123 174.809 103.972 174.45 103.672C174.09 103.367 173.889 102.868 173.847 102.174H174.837C174.875 102.614 174.989 102.921 175.18 103.094C175.374 103.268 175.711 103.354 176.189 103.354C176.625 103.354 176.946 103.261 177.154 103.075C177.365 102.889 177.494 102.589 177.541 102.174H178.538C178.487 102.842 178.273 103.335 177.896 103.653C177.52 103.966 176.942 104.123 176.164 104.123ZM187.431 108.515C187.431 109.649 187.145 110.536 186.574 111.175C186.002 111.81 185.213 112.127 184.206 112.127C183.584 112.127 183.032 111.981 182.549 111.689C182.067 111.397 181.694 110.978 181.432 110.432C181.17 109.886 181.039 109.247 181.039 108.515C181.039 107.381 181.322 106.499 181.889 105.868C182.456 105.233 183.243 104.916 184.25 104.916C185.224 104.916 185.996 105.24 186.567 105.887C187.143 106.535 187.431 107.411 187.431 108.515ZM182.13 108.515C182.13 109.404 182.308 110.081 182.664 110.546C183.019 111.012 183.542 111.245 184.231 111.245C184.921 111.245 185.444 111.014 185.799 110.553C186.159 110.087 186.339 109.408 186.339 108.515C186.339 107.631 186.159 106.96 185.799 106.503C185.444 106.042 184.917 105.811 184.219 105.811C183.529 105.811 183.008 106.037 182.657 106.49C182.306 106.943 182.13 107.618 182.13 108.515ZM190.338 105.043V107.957H194.235V105.043H195.289V112H194.235V108.864H190.338V112H189.284V105.043H190.338ZM198.514 105.043V109.455L198.469 110.61L198.45 110.972L202.214 105.043H203.528V112H202.544V107.747L202.563 106.909L202.595 106.084L198.837 112H197.523V105.043H198.514Z" fill="#193F6A"/>
<path d="M3 58V88H135V58" stroke="#00AFD2" stroke-width="3"/>
<path d="M157 58V88H216V58" stroke="#00AFD2" stroke-width="3"/>
<path d="M235 58V88H316V58" stroke="#00AFD2" stroke-width="3"/>
<path d="M344 58V88H425V58" stroke="#00AFD2" stroke-width="3"/>
<path d="M449 58V88H508V58" stroke="#00AFD2" stroke-width="3"/>
<path d="M528 58V88H676V58" stroke="#00AFD2" stroke-width="3"/>
</svg>
