<?xml version="1.0" encoding="UTF-8" standalone="no"?>
<svg width="209.973mm" height="209.973mm"
 viewBox="0 0 2480 2480"
 xmlns="http://www.w3.org/2000/svg" xmlns:xlink="http://www.w3.org/1999/xlink"  version="1.2" baseProfile="tiny">
<desc>Generated with Qt</desc>
<defs>
<linearGradient gradientUnits="objectBoundingBox" x1="0.0669873" y1="0.25" x2="1" y2="0.316987" id="gradient1">
    <stop offset="0" stop-color="#350d6e" stop-opacity="1" />
    <stop offset="1" stop-color="#1bd5e3" stop-opacity="1" />
</linearGradient>
<linearGradient gradientUnits="objectBoundingBox" x1="0.0669873" y1="0.25" x2="1" y2="0.316987" id="gradient2">
    <stop offset="0" stop-color="#350d6e" stop-opacity="1" />
    <stop offset="1" stop-color="#1bd5e3" stop-opacity="1" />
</linearGradient>
<linearGradient gradientUnits="objectBoundingBox" x1="0.0669873" y1="0.25" x2="1" y2="0.316987" id="gradient3">
    <stop offset="0" stop-color="#350d6e" stop-opacity="1" />
    <stop offset="1" stop-color="#1bd5e3" stop-opacity="1" />
</linearGradient>
<linearGradient gradientUnits="objectBoundingBox" x1="0.0669873" y1="0.25" x2="1" y2="0.316987" id="gradient4">
    <stop offset="0" stop-color="#350d6e" stop-opacity="1" />
    <stop offset="1" stop-color="#1bd5e3" stop-opacity="1" />
</linearGradient>
<linearGradient gradientUnits="objectBoundingBox" x1="0.0669873" y1="0.25" x2="1" y2="0.316987" id="gradient5">
    <stop offset="0" stop-color="#350d6e" stop-opacity="1" />
    <stop offset="1" stop-color="#1bd5e3" stop-opacity="1" />
</linearGradient>
<linearGradient gradientUnits="objectBoundingBox" x1="0.0669873" y1="0.25" x2="1" y2="0.316987" id="gradient6">
    <stop offset="0" stop-color="#350d6e" stop-opacity="1" />
    <stop offset="1" stop-color="#1bd5e3" stop-opacity="1" />
</linearGradient>
<linearGradient gradientUnits="objectBoundingBox" x1="0.0669873" y1="0.25" x2="1" y2="0.316987" id="gradient7">
    <stop offset="0" stop-color="#350d6e" stop-opacity="1" />
    <stop offset="1" stop-color="#1bd5e3" stop-opacity="1" />
</linearGradient>
<linearGradient gradientUnits="objectBoundingBox" x1="0.0669873" y1="0.25" x2="1" y2="0.316987" id="gradient8">
    <stop offset="0" stop-color="#350d6e" stop-opacity="1" />
    <stop offset="1" stop-color="#1bd5e3" stop-opacity="1" />
</linearGradient>
</defs>
<g fill="none" stroke="black" stroke-width="1" fill-rule="evenodd" stroke-linecap="square" stroke-linejoin="bevel" >

<g fill="none" stroke="#000000" stroke-opacity="1" stroke-width="1" stroke-linecap="square" stroke-linejoin="bevel" transform="matrix(1,0,0,1,0,0)"
font-family="MS Shell Dlg 2" font-size="34.375" font-weight="400" font-style="normal" 
>
</g>

<g fill="none" stroke="#000000" stroke-opacity="1" stroke-width="1" stroke-linecap="square" stroke-linejoin="bevel" transform="matrix(11.8095,0,0,11.8095,0,0)"
font-family="MS Shell Dlg 2" font-size="34.375" font-weight="400" font-style="normal" 
>
</g>

<g fill="#ffffff" fill-opacity="0" stroke="none" transform="matrix(0.999873,0,0,0.999873,0,0)"
font-family="MS Shell Dlg 2" font-size="34.375" font-weight="400" font-style="normal" 
>
<path vector-effect="none" fill-rule="evenodd" d="M-1,-1 L2481.31,-1 L2481.31,2481.31 L-1,2481.31 L-1,-1"/>
</g>

<g fill="none" stroke="#000000" stroke-opacity="1" stroke-width="1" stroke-linecap="square" stroke-linejoin="bevel" transform="matrix(11.8095,0,0,11.8095,0,0)"
font-family="MS Shell Dlg 2" font-size="34.375" font-weight="400" font-style="normal" 
>
</g>

<g fill="none" stroke="#000000" stroke-opacity="1" stroke-width="1" stroke-linecap="square" stroke-linejoin="bevel" transform="matrix(11.8095,0,0,11.8095,0,0)"
font-family="MS Shell Dlg 2" font-size="34.375" font-weight="400" font-style="normal" 
>
</g>

<g fill="none" stroke="#000000" stroke-opacity="1" stroke-width="1" stroke-linecap="square" stroke-linejoin="bevel" transform="matrix(11.8095,0,0,11.8095,0,212.133)"
font-family="MS Shell Dlg 2" font-size="34.375" font-weight="400" font-style="normal" 
>
</g>

<g fill="none" stroke="#000000" stroke-opacity="1" stroke-width="1" stroke-linecap="square" stroke-linejoin="bevel" transform="matrix(11.8095,0,0,11.8095,0,212.133)"
font-family="MS Shell Dlg 2" font-size="34.375" font-weight="400" font-style="normal" 
>
</g>

<g fill="#000000" fill-opacity="0" stroke="none" transform="matrix(0.999873,0,0,0.999873,0,212.133)"
font-family="MS Shell Dlg 2" font-size="34.375" font-weight="400" font-style="normal" 
>
<path vector-effect="non-scaling-stroke" fill-rule="evenodd" d="M0,0 L2480,0 L2480,1933 L0,1933 L0,0"/>
</g>

<g fill="url(#gradient1)" stroke="none" transform="matrix(0.999873,0,0,0.999873,0,212.133)"
font-family="MS Shell Dlg 2" font-size="34.375" font-weight="400" font-style="normal" 
>
<path vector-effect="non-scaling-stroke" fill-rule="evenodd" d="M1763.52,1626.75 L1810.08,1703.16 L1844.17,1734.14 L1871.94,1724.25 L1888.98,1697.28 L1908.62,1717.43 L1934.47,1697.75 L1991.99,1704.17 L1996.63,1718.95 L1976.46,1719.16 L1977.96,1727.63 L1967.36,1734.4 L1972.32,1770.72 L1941.14,1783.94 L1914.84,1779.62 L1888.3,1789.53 L1867.79,1768.46 L1841.2,1766.51 L1826.1,1779.91 L1831.41,1786.8 L1822.06,1791.87 L1825.7,1799.63 L1809.2,1795.94 L1784.36,1829.62 L1768.23,1820.21 L1718.83,1833.39 L1698.07,1846.04 L1683.49,1876.62 L1631.25,1906.87 L1599.96,1907.6 L1580.83,1885.33 L1565.6,1886.39 L1550.69,1869.96 L1581.31,1864.83 L1568.66,1862.01 L1582.89,1804.92 L1578.01,1777.94 L1564.89,1759.11 L1551.88,1750.97 L1534.39,1760.67 L1485.98,1719.1 L1465.12,1718.35 L1451.07,1728.08 L1429.87,1722.26 L1427.47,1713.49 L1438.93,1697.9 L1475.4,1682.67 L1484.81,1665.99 L1517.91,1648.91 L1520.36,1645.15 L1521.58,1636.31 L1522.24,1633.1 L1523.25,1631.69 L1531.45,1642.8 L1582.92,1615.36 L1592.45,1624.65 L1591.91,1612.23 L1602.9,1606.57 L1593.54,1602.32 L1583.57,1604.25 L1582.64,1565.69 L1568.85,1569.6 L1576.75,1578.78 L1566.72,1579.12 L1568.03,1588.13 L1556.48,1587.64 L1544.04,1570.91 L1541.99,1578.64 L1537.96,1578.61 L1537.6,1567.34 L1526.44,1572.31 L1529.54,1550.93 L1517.28,1569.04 L1503.09,1562.83 L1502.6,1571.68 L1466.82,1569.53 L1436.07,1580.66 L1316.22,1548.65 L1309.02,1546.03 L1303.77,1542.77 L1298.9,1538.07 L1295.83,1533.01 L1295.71,1521.18 L1301.97,1540.86 L1317.3,1543.7 L1333.79,1528.18 L1335.25,1498.39 L1322.12,1498.56 L1321.82,1508.74 L1298.13,1484.8 L1296.05,1481.98 L1294.69,1479.21 L1294.54,1478.46 L1294.55,1478.16 L1304.3,1487.25 L1342.07,1491.14 L1351.3,1480.25 L1400.76,1492.66 L1399.14,1477.44 L1380.87,1483.11 L1359.33,1463.46 L1335.6,1479.51 L1331,1470.04 L1312.21,1464.64 L1299.86,1474.52 L1247.25,1469.21 L1190.21,1485.75 L1190.45,1519.37 L1153.15,1577.83 L1117.65,1620.45 L1033.36,1694.56 L1039.1,1701.44 L1057.34,1698.38 L1054.01,1746.15 L1042.91,1747.76 L1031.73,1713.86 L995.448,1702.08 L945.522,1724.98 L942.038,1735.04 L921.395,1724.25 L920.178,1743.31 L890.149,1741.15 L865.818,1729.47 L842.28,1698.07 L854.922,1682.84 L871.48,1686.07 L871.631,1694.84 L883.641,1692.03 L884.121,1645.52 L893.831,1647.15 L892.47,1639.21 L920.773,1626.83 L919.404,1599.57 L947.206,1593.04 L950.938,1583.93 L943.397,1575.25 L959.397,1555.05 L943.416,1542.24 L950.764,1530.93 L941.09,1502.79 L982.307,1482.95 L983.176,1519.21 L994.512,1511.53 L998.263,1493.73 L1004.39,1509.51 L1011.51,1494.75 L1032.85,1523.81 L1043.02,1522.17 L1040.68,1507.35 L1050.86,1507.61 L1051.78,1499.98 L1072.33,1523.98 L1078.76,1514.4 L1099.43,1517.69 L1109.75,1511.74 L1090.42,1506.18 L1085.46,1492.53 L1078.45,1495.65 L1070.28,1485.2 L1080.31,1482.54 L1083.06,1428.18 L1074.31,1430.6 L1071.31,1417.31 L1053.08,1422.44 L1048.77,1408.08 L1026.42,1402.86 L1034.07,1374.35 L1022.86,1379.3 L1017.96,1368.14 L1029.79,1367.11 L1028.82,1319.66 L1008.63,1335.61 L993.641,1304.03 L983.76,1310.77 L983.367,1301.01 L976.207,1308.72 L971.777,1301.68 L975.998,1290.46 L966.188,1282.49 L982.167,1264.48 L977.961,1248.7 L987.899,1231.53 L977.428,1228.77 L988.682,1214.48 L977.722,1215.05 L974.014,1192.74 L960.005,1202.89 L939.868,1199.44 L928.051,1184.38 L928.258,1165.86 L907.306,1165.82 L894.158,1155.72 L881.82,1160.23 L880.06,1177.88 L871.046,1155.66 L854.8,1162.42 L861.63,1140.94 L841.439,1149.34 L837.108,1138.47 L825.029,1143.18 L822.716,1125.82 L806.91,1124.09 L783.423,1099.4 L763.813,1100.46 L756.34,1090.1 L737.133,1107.18 L720.119,1100.1 L715.238,1114.91 L695.25,1114.52 L687.489,1101.97 L678.035,1104.66 L682.941,1111.53 L674.988,1117.75 L658.065,1104.95 L638.76,1107 L651.661,1120.75 L650.395,1131.05 L632.653,1118.33 L623.893,1142.22 L584.786,1153.73 L564.26,1192.52 L444.427,1208.93 L407.205,1247.12 L385.477,1247.8 L377.896,1228.16 L361.213,1224.12 L343.248,1198.1 L324.114,1197.51 L295.644,1212.64 L265.394,1198.05 L245.667,1205.38 L232.897,1192.21 L199.659,1186.8 L194.897,1198.04 L151.059,1166.8 L139.645,1190.35 L117.207,1187.56 L120.019,1198.13 L112.809,1200.8 L104.7,1193.45 L110.907,1180.18 L103.332,1167.51 L70.9743,1169.35 L58.8923,1140.38 L42.7445,1143.32 L26.3688,1107.06 L9.8442,1108.39 L8.8959,1102.36 L13.5154,1070.31 L36.589,1050.31 L42.6149,1012.61 L64.8427,983.002 L65.893,967.803 L112.314,982.761 L112.465,964.594 L87.1096,947.957 L92.4549,908.888 L77.8983,873.069 L165.624,751.778 L224.381,691.966 L264.029,684.921 L273.92,665.339 L274.612,619.723 L258.633,602.427 L284.329,586.024 L260.256,568.333 L246.345,524.836 L216.215,494.743 L223.555,465.635 L211.728,447.322 L220.012,446.748 L210.015,421.207 L234.506,411.007 L252.32,419.012 L247.992,427.766 L263.856,430.288 L308.093,392.615 L305.534,378.644 L317.676,363.523 L395.233,360.294 L427.778,344.102 L457.633,354.808 L508.741,354.535 L506.843,348.369 L544.817,353.695 L560.07,367.102 L592.958,364.466 L603.241,381.744 L633.837,376.484 L647.804,391.481 L669.061,396.023 L704.053,388.279 L711.246,425.501 L738.392,421.465 L745.074,428.853 L751.241,417.685 L774.948,425.162 L766.823,444.178 L778.786,453.926 L792.3,438.485 L790.398,420.525 L809.514,427.278 L804.64,435.466 L818.775,433.465 L848.964,407.859 L861.311,439.259 L877.33,427.456 L903.241,433.145 L906.704,460.263 L913.938,455.686 L916.332,466.73 L925.452,435.05 L950.249,431.643 L972.761,414.175 L994.149,475.111 L1017.95,470.773 L1024.09,451.905 L1029.23,456.558 L1051.14,441.168 L1058.6,460.619 L1111.81,445.083 L1134.63,464.767 L1133.29,480.311 L1162.49,499.782 L1177,474.524 L1167.61,463.615 L1172.63,455.162 L1157.3,426.813 L1163.71,424.585 L1158.3,410.351 L1172.82,400.871 L1189.9,358.806 L1215.21,338.008 L1217.55,317.294 L1243.84,314.339 L1265.35,337.419 L1259.52,327.686 L1283.57,305.291 L1343.35,312.528 L1356.11,320.492 L1349.94,327.678 L1374.64,329.772 L1411.87,304.895 L1406.03,287.752 L1416.42,282.081 L1413.21,261.725 L1437.16,264.318 L1457.69,281.78 L1475.92,274.951 L1483.33,282.42 L1524.68,252.358 L1568.68,257.136 L1564.55,266.879 L1575.26,269.733 L1611.86,255.825 L1650.9,305.091 L1649.71,336.217 L1669.6,363.599 L1692.91,376.054 L1693.9,398.916 L1647.1,411.235 L1678.18,443.589 L1666.19,466.216 L1682.4,479.537 L1667.53,499.65 L1726.75,503.531 L1734.25,520.181 L1750.52,520.598 L1770.33,506.095 L1778.33,512.961 L1793.65,508.604 L1798.87,546.156 L1815.49,540.337 L1828.72,547.055 L1817.55,554.701 L1817.9,569.297 L1827.93,576.038 L1829.55,600.54 L1840.03,606.007 L1841.07,627.412 L1827.18,633.281 L1826.7,648.594 L1853.56,676.949 L1859.05,697.754 L1874.43,697.302 L1887.29,680.155 L1919.67,676.477 L1932.26,680.831 L1950.94,710.722 L1969.4,702.545 L1990.7,712.249 L1987.1,719.6 L1999.14,726.518 L2029.73,701.512 L2069.62,696.809 L2112.86,674.678 L2113.92,696.858 L2134.59,706.609 L2135.3,735.691 L2151,756.445 L2174.5,766.01 L2189.31,794.769 L2214.43,777.769 L2208.96,756.001 L2227.8,754.537 L2233.12,772.011 L2251.92,781.022 L2273.28,782.604 L2279.73,772.424 L2279.66,787.096 L2310.75,803.142 L2312.69,816.316 L2346.09,797.011 L2360.8,824.823 L2406.01,829.385 L2409.93,851.295 L2432.32,866.425 L2478.21,855.197 L2482.23,864.698 L2465.16,874.558 L2462.86,889.166 L2485.65,911.736 L2489.53,931.215 L2463.59,946.64 L2450.57,972.515 L2413.99,975.839 L2435.45,1007.82 L2458.27,1011.76 L2463.04,1001.62 L2469.55,1010.89 L2455.83,1027.64 L2431.64,1017.6 L2412.39,1065.52 L2438.89,1074.75 L2438.08,1093.63 L2451.76,1118.85 L2437.2,1127.58 L2447.81,1135.39 L2457.41,1126.1 L2461.62,1139.09 L2450.84,1144.18 L2436.42,1177.07 L2443.21,1181.92 L2428.57,1183.01 L2434.82,1200.55 L2422.95,1226.68 L2397.16,1227.39 L2386.58,1219.48 L2378.83,1225.84 L2375.06,1217.38 L2299.41,1219.09 L2290.27,1255.79 L2275.55,1252.93 L2268.98,1264.15 L2246.97,1264.23 L2227.07,1277.97 L2225.95,1315.31 L2214.68,1332.89 L2230.48,1332.84 L2230.08,1340.2 L2216.47,1348.04 L2216.05,1370.4 L2205.08,1382.59 L2197.1,1389.39 L2203.08,1382.04 L2193.42,1371.8 L2126.22,1374.27 L2118.82,1379.93 L2115.79,1386.13 L2112.61,1388.55 L2106.81,1398.1 L2092.59,1417.64 L2089.48,1420.54 L2091.25,1412.15 L2079.67,1404.31 L2036.13,1429.71 L2021.26,1460.71 L2015.28,1468.27 L2023.9,1454.68 L2021.52,1448.34 L1994.53,1438.91 L1961.22,1453.26 L1952.3,1464.36 L1947.01,1474.41 L1941.24,1484.35 L1934.44,1493.8 L1925.75,1496.75 L1941.09,1484.24 L1947.47,1473.28 L1950.66,1466.98 L1950.55,1465.83 L1945.64,1475.36 L1936.51,1460.36 L1899.18,1462.68 L1835.01,1506.46 L1811.16,1541.38 L1787.17,1533.98 L1758.81,1546.14 L1746.97,1562.32 L1763.52,1626.75 M393.19,1239.29 L393.155,1239.17 L393.179,1239.55 L393.19,1239.29 M393.155,1239.17 L393.128,1239.13 L393.116,1239.12 L393.081,1239.07 L393.155,1239.17 M393.473,1236.86 L393.495,1236.81 L393.514,1236.77 L393.524,1236.72 L393.536,1236.65 L393.473,1236.86 M393.536,1236.65 L393.531,1236.59 L393.528,1236.57 L393.536,1236.65 M393.7,1235.63 L393.716,1235.59 L393.723,1235.57 L393.736,1235.52 L393.7,1235.63 M393.736,1235.52 L393.743,1235.46 L393.745,1235.43 L393.745,1235.43 L393.736,1235.52 M393.968,1234.64 L393.974,1234.61 L393.981,1234.56 L393.968,1234.64 L393.968,1234.64 M393.981,1234.56 L393.978,1234.49 L393.977,1234.48 L393.981,1234.56 M1656.17,1595.79 L1661.48,1593.36 L1655.4,1599.7 L1649.81,1597.45 L1661.2,1607.24 L1663.21,1593.12 L1659.29,1587.28 L1684.79,1586.44 L1695.92,1604.2 L1687.93,1613.61 L1694.76,1611.69 L1694.04,1618.52 L1696.27,1615.22 L1694.66,1606.66 L1701.01,1604.6 L1701.24,1621.05 L1707.91,1607.73 L1714.22,1611.77 L1717.11,1610.1 L1713,1603.67 L1714.02,1597.83 L1723.58,1603.66 L1721.57,1616.37 L1699.12,1632.68 L1700.96,1636.68 L1710.92,1634.53 L1740.26,1613.54 L1726.41,1633.68 L1738.93,1628.63 L1743.4,1634.67 L1737.4,1643.97 L1728.34,1649.04 L1734.64,1651.37 L1756.32,1642.93 L1751.7,1648.48 L1770.49,1656.22 L1778.2,1668.62 L1788.78,1694.97 L1774.4,1705.92 L1773.46,1712.2 L1766.27,1715.61 L1781.31,1718.84 L1790.22,1723.63 L1821.68,1734.61 L1816.46,1740.98 L1837.83,1739.15 L1839.59,1732.71 L1816.65,1714.89 L1803.81,1694.89 L1773.93,1656.62 L1760.14,1622.77 L1745.38,1626.59 L1746.03,1613.21 L1729.25,1591.44 L1735.5,1594.93 L1740.41,1593.57 L1740.36,1592.26 L1733.7,1578.04 L1732.07,1576.5 L1728.3,1575.99 L1727.98,1575.8 L1727.78,1575.11 L1740.15,1572.8 L1744.14,1579.49 L1746.71,1568.26 L1722.06,1559.49 L1719.29,1587.29 L1701.69,1603.03 L1690.03,1575.27 L1701.09,1568.85 L1702.74,1571.28 L1702.86,1575.88 L1703.02,1576.41 L1703.67,1576.79 L1710.29,1567.96 L1714.22,1576.73 L1717.37,1560.62 L1710.69,1554.85 L1705.03,1567.12 L1678.78,1550.43 L1679.64,1572.51 L1673.46,1566.33 L1667.33,1580.95 L1664.74,1572.68 L1663.51,1579.26 L1650.6,1567.89 L1641.69,1570.03 L1628.63,1549.56 L1605.03,1543.24 L1600.12,1553.97 L1592.43,1552.52 L1656.17,1595.79 M1178.46,1486.7 L1178.44,1486.72 L1178.5,1486.7 L1178.46,1486.7 M1180.49,1490.4 L1180.52,1490.4 L1180.51,1490.39 L1180.49,1490.4"/>
</g>

<g fill="url(#gradient2)" stroke="none" transform="matrix(0.999873,0,0,0.999873,0,212.133)"
font-family="MS Shell Dlg 2" font-size="34.375" font-weight="400" font-style="normal" 
>
<path vector-effect="non-scaling-stroke" fill-rule="evenodd" d="M1558.7,1626.73 L1558.82,1626.63 L1558.98,1627.01 L1558.7,1626.73"/>
</g>

<g fill="url(#gradient3)" stroke="none" transform="matrix(0.999873,0,0,0.999873,0,212.133)"
font-family="MS Shell Dlg 2" font-size="34.375" font-weight="400" font-style="normal" 
>
<path vector-effect="non-scaling-stroke" fill-rule="evenodd" d="M1561.98,1624.49 L1562.2,1624.49 L1562.26,1624.58 L1561.89,1624.67 L1561.98,1624.49"/>
</g>

<g fill="url(#gradient4)" stroke="none" transform="matrix(0.999873,0,0,0.999873,0,212.133)"
font-family="MS Shell Dlg 2" font-size="34.375" font-weight="400" font-style="normal" 
>
<path vector-effect="non-scaling-stroke" fill-rule="evenodd" d="M1563.15,1624.15 L1563.03,1624.34 L1562.91,1624.31 L1563,1624.09 L1563.15,1624.15"/>
</g>

<g fill="url(#gradient5)" stroke="none" transform="matrix(0.999873,0,0,0.999873,0,212.133)"
font-family="MS Shell Dlg 2" font-size="34.375" font-weight="400" font-style="normal" 
>
<path vector-effect="non-scaling-stroke" fill-rule="evenodd" d="M1558.89,1626.26 L1558.76,1626.32 L1558.86,1626.11 L1558.92,1626.14 L1558.89,1626.26"/>
</g>

<g fill="url(#gradient6)" stroke="none" transform="matrix(0.999873,0,0,0.999873,0,212.133)"
font-family="MS Shell Dlg 2" font-size="34.375" font-weight="400" font-style="normal" 
>
<path vector-effect="non-scaling-stroke" fill-rule="evenodd" d="M1558.49,1626.54 L1558.42,1626.45 L1558.58,1626.42 L1558.58,1626.54 L1558.49,1626.54"/>
</g>

<g fill="url(#gradient7)" stroke="none" transform="matrix(0.999873,0,0,0.999873,0,212.133)"
font-family="MS Shell Dlg 2" font-size="34.375" font-weight="400" font-style="normal" 
>
<path vector-effect="non-scaling-stroke" fill-rule="evenodd" d="M1571.34,1619.22 L1570.57,1619.79 L1573.17,1617.07 L1571.34,1619.22"/>
</g>

<g fill="url(#gradient8)" stroke="none" transform="matrix(0.999873,0,0,0.999873,0,212.133)"
font-family="MS Shell Dlg 2" font-size="34.375" font-weight="400" font-style="normal" 
>
<path vector-effect="non-scaling-stroke" fill-rule="evenodd" d="M2020.55,1459.16 L2020.68,1459.07 L2020.78,1459.17 L2020.55,1459.16"/>
</g>

<g fill="none" stroke="#000000" stroke-opacity="1" stroke-width="1" stroke-linecap="square" stroke-linejoin="bevel" transform="matrix(11.8095,0,0,11.8095,0,212.133)"
font-family="MS Shell Dlg 2" font-size="34.375" font-weight="400" font-style="normal" 
>
</g>

<g fill="none" stroke="#000000" stroke-opacity="1" stroke-width="1" stroke-linecap="square" stroke-linejoin="bevel" transform="matrix(11.8095,0,0,11.8095,0,212.133)"
font-family="MS Shell Dlg 2" font-size="34.375" font-weight="400" font-style="normal" 
>
</g>

<g fill="none" stroke="#000000" stroke-opacity="1" stroke-width="1" stroke-linecap="square" stroke-linejoin="bevel" transform="matrix(11.8095,0,0,11.8095,0,212.133)"
font-family="MS Shell Dlg 2" font-size="34.375" font-weight="400" font-style="normal" 
>
</g>

<g fill="none" stroke="#000000" stroke-opacity="1" stroke-width="1" stroke-linecap="square" stroke-linejoin="bevel" transform="matrix(1,0,0,1,0,0)"
font-family="MS Shell Dlg 2" font-size="34.375" font-weight="400" font-style="normal" 
>
</g>

<g fill="none" stroke="#000000" stroke-opacity="1" stroke-width="1" stroke-linecap="square" stroke-linejoin="bevel" transform="matrix(11.8095,0,0,11.8095,0,212.133)"
font-family="MS Shell Dlg 2" font-size="34.375" font-weight="400" font-style="normal" 
>
</g>

<g fill="none" stroke="#000000" stroke-opacity="1" stroke-width="1" stroke-linecap="square" stroke-linejoin="bevel" transform="matrix(11.8095,0,0,11.8095,0,212.133)"
font-family="MS Shell Dlg 2" font-size="34.375" font-weight="400" font-style="normal" 
>
</g>

<g fill="none" stroke="#000000" stroke-opacity="1" stroke-width="1" stroke-linecap="square" stroke-linejoin="bevel" transform="matrix(11.8095,0,0,11.8095,0,0)"
font-family="MS Shell Dlg 2" font-size="34.375" font-weight="400" font-style="normal" 
>
</g>

<g fill="none" stroke="#000000" stroke-opacity="1" stroke-width="1" stroke-linecap="square" stroke-linejoin="bevel" transform="matrix(11.8095,0,0,11.8095,0,0)"
font-family="MS Shell Dlg 2" font-size="34.375" font-weight="400" font-style="normal" 
>
</g>

<g fill="none" stroke="#000000" stroke-opacity="1" stroke-width="1" stroke-linecap="square" stroke-linejoin="bevel" transform="matrix(1,0,0,1,0,0)"
font-family="MS Shell Dlg 2" font-size="34.375" font-weight="400" font-style="normal" 
>
</g>
</g>
</svg>
